<svg width="35" height="35" viewBox="0 0 35 35" fill="none" xmlns="http://www.w3.org/2000/svg">
<circle cx="17.5" cy="17.5" r="17" stroke="#CCCCCC"/>
<path d="M16.4158 18.2458L19.9558 14.7058C20.1421 14.5184 20.2466 14.265 20.2466 14.0008C20.2466 13.7366 20.1421 13.4832 19.9558 13.2958C19.8628 13.2021 19.7522 13.1277 19.6304 13.0769C19.5085 13.0261 19.3778 13 19.2458 13C19.1138 13 18.9831 13.0261 18.8612 13.0769C18.7394 13.1277 18.6288 13.2021 18.5358 13.2958L14.2958 17.5358C14.2021 17.6288 14.1277 17.7394 14.0769 17.8612C14.0261 17.9831 14 18.1138 14 18.2458C14 18.3778 14.0261 18.5085 14.0769 18.6304C14.1277 18.7522 14.2021 18.8628 14.2958 18.9558L18.5358 23.2458C18.6292 23.3385 18.74 23.4118 18.8619 23.4616C18.9837 23.5113 19.1142 23.5366 19.2458 23.5358C19.3774 23.5366 19.5079 23.5113 19.6297 23.4616C19.7515 23.4118 19.8624 23.3385 19.9558 23.2458C20.1421 23.0584 20.2466 22.805 20.2466 22.5408C20.2466 22.2766 20.1421 22.0232 19.9558 21.8358L16.4158 18.2458Z" fill="black"/>
</svg>
