<svg width="4" height="8" viewBox="0 0 4 8" fill="none" xmlns="http://www.w3.org/2000/svg">
<path d="M0.931149 0.184985C0.718136 -0.0616617 0.372773 -0.0616617 0.15976 0.184985C-0.0532533 0.431632 -0.0532533 0.831526 0.15976 1.07817L0.931149 0.184985ZM3.45455 4L3.84024 4.44659C4.05325 4.19995 4.05325 3.80005 3.84024 3.55341L3.45455 4ZM0.15976 6.92183C-0.0532533 7.16847 -0.0532533 7.56837 0.15976 7.81502C0.372773 8.06166 0.718136 8.06166 0.931149 7.81502L0.15976 6.92183ZM0.15976 1.07817L3.06885 4.44659L3.84024 3.55341L0.931149 0.184985L0.15976 1.07817ZM3.06885 3.55341L0.15976 6.92183L0.931149 7.81502L3.84024 4.44659L3.06885 3.55341Z" fill="black"/>
</svg>
