<svg width="48" height="18" viewBox="0 0 48 18" fill="none" xmlns="http://www.w3.org/2000/svg">
<path d="M45.9457 7.94699C46.2386 7.65409 46.2386 7.17922 45.9457 6.88633C45.6528 6.59343 45.1779 6.59343 44.885 6.88633L45.9457 7.94699ZM40.7487 12.0833L40.2184 12.6137C40.5113 12.9065 40.9861 12.9065 41.279 12.6137L40.7487 12.0833ZM36.6124 6.88633C36.3195 6.59343 35.8446 6.59343 35.5517 6.88633C35.2588 7.17922 35.2588 7.65409 35.5517 7.94699L36.6124 6.88633ZM44.885 6.88633L40.2184 11.553L41.279 12.6137L45.9457 7.94699L44.885 6.88633ZM41.279 11.553L36.6124 6.88633L35.5517 7.94699L40.2184 12.6137L41.279 11.553Z" fill="white"/>
</svg>
