<svg width="50" height="50" viewBox="0 0 50 50" fill="none" xmlns="http://www.w3.org/2000/svg">
<circle cx="25" cy="25" r="25" fill="#8982FF"/>
<path fill-rule="evenodd" clip-rule="evenodd" d="M25.9405 30.6625C27.2169 29.3178 28 27.5004 28 25.5C28 23.4996 27.2169 21.6822 25.9405 20.3375C26.8363 19.8055 27.8824 19.5 28.9999 19.5C32.3136 19.5 34.9999 22.1863 34.9999 25.5C34.9999 28.8137 32.3136 31.5 28.9999 31.5C27.8824 31.5 26.8363 31.1945 25.9405 30.6625ZM24.75 31.6805C22.7868 30.3279 21.4999 28.0643 21.4999 25.5C21.4999 22.9357 22.7868 20.6721 24.75 19.3195C25.1817 19.617 25.5807 19.9585 25.9405 20.3375C24.1799 21.3831 22.9999 23.3038 22.9999 25.5C22.9999 27.6962 24.1799 29.6169 25.9405 30.6625C25.5807 31.0415 25.1817 31.383 24.75 31.6805ZM24.75 31.6805C23.542 32.5127 22.0779 33 20.5 33C16.3579 33 13 29.6421 13 25.5C13 21.3579 16.3579 18 20.5 18C22.0779 18 23.542 18.4873 24.75 19.3195C25.958 18.4873 27.422 18 28.9999 18C33.1421 18 36.4999 21.3579 36.4999 25.5C36.4999 29.6421 33.1421 33 28.9999 33C27.422 33 25.958 32.5127 24.75 31.6805Z" fill="#D9D9D9"/>
</svg>
