<svg width="22" height="24" viewBox="0 0 22 24" fill="none" xmlns="http://www.w3.org/2000/svg">
<g clip-path="url(#clip0_3_680)">
<path d="M15.35 0.0120105C15.306 -0.0449895 13.7199 0.0345106 12.3397 1.77001C10.9595 3.50401 11.1719 5.49301 11.203 5.54401C11.234 5.59501 13.171 5.67451 14.4074 3.65701C15.6439 1.63951 15.394 0.0705105 15.35 0.0120105ZM19.6408 17.6115C19.5786 17.4675 16.6305 15.7605 16.905 12.4785C17.1795 9.19501 19.0737 8.29501 19.1034 8.19751C19.1332 8.10001 18.3305 7.01251 17.4799 6.46201C16.8553 6.07389 16.1641 5.85152 15.4562 5.81101C15.3163 5.80651 14.8308 5.66851 13.8326 5.98501C13.1749 6.19351 11.6924 6.86851 11.2845 6.89551C10.8754 6.92251 9.65834 6.11251 8.34936 5.89801C7.51166 5.71051 6.62347 6.09451 5.98776 6.39001C5.35334 6.68401 4.14664 7.52101 3.30247 9.74551C2.4583 11.9685 2.89981 15.4905 3.21573 16.5855C3.53164 17.679 4.02494 19.4715 4.86393 20.7795C5.60969 22.2555 6.59887 23.28 7.01189 23.628C7.42492 23.976 8.59018 24.207 9.39809 23.7285C10.0481 23.2665 11.2211 23.001 11.6846 23.0205C12.1468 23.04 13.0583 23.2515 13.9918 23.829C14.7311 24.1245 15.4303 24.0015 16.1307 23.6715C16.8312 23.34 17.845 22.083 19.0284 19.5345C19.4776 18.3495 19.6822 17.709 19.6408 17.6115Z" fill="white"/>
<path d="M15.35 0.0120105C15.306 -0.0449895 13.7199 0.0345106 12.3397 1.77001C10.9595 3.50401 11.1719 5.49301 11.203 5.54401C11.234 5.59501 13.171 5.67451 14.4074 3.65701C15.6439 1.63951 15.394 0.0705105 15.35 0.0120105ZM19.6408 17.6115C19.5786 17.4675 16.6305 15.7605 16.905 12.4785C17.1795 9.19501 19.0737 8.29501 19.1034 8.19751C19.1332 8.10001 18.3305 7.01251 17.4799 6.46201C16.8553 6.07389 16.1641 5.85152 15.4562 5.81101C15.3163 5.80651 14.8308 5.66851 13.8326 5.98501C13.1749 6.19351 11.6924 6.86851 11.2845 6.89551C10.8754 6.92251 9.65834 6.11251 8.34936 5.89801C7.51166 5.71051 6.62347 6.09451 5.98776 6.39001C5.35334 6.68401 4.14664 7.52101 3.30247 9.74551C2.4583 11.9685 2.89981 15.4905 3.21573 16.5855C3.53164 17.679 4.02494 19.4715 4.86393 20.7795C5.60969 22.2555 6.59887 23.28 7.01189 23.628C7.42492 23.976 8.59018 24.207 9.39809 23.7285C10.0481 23.2665 11.2211 23.001 11.6846 23.0205C12.1468 23.04 13.0583 23.2515 13.9918 23.829C14.7311 24.1245 15.4303 24.0015 16.1307 23.6715C16.8312 23.34 17.845 22.083 19.0284 19.5345C19.4776 18.3495 19.6822 17.709 19.6408 17.6115Z" fill="white"/>
</g>
<defs>
<clipPath id="clip0_3_680">
<rect width="20.7158" height="24" fill="white" transform="translate(0.873047)"/>
</clipPath>
</defs>
</svg>
