<svg width="15" height="15" viewBox="0 0 15 15" fill="none" xmlns="http://www.w3.org/2000/svg">
<path d="M14.1049 0.907374L14.463 0.558447L14.1049 0.907374ZM12.7533 0.555051L12.8929 1.03516L12.8933 1.03505L12.7533 0.555051ZM1.48566 3.83166L1.61952 4.31345L1.62528 4.31177L1.48566 3.83166ZM0.517167 4.89638L1.00845 4.98931L1.00852 4.98898L0.517167 4.89638ZM1.21885 6.36838L0.95695 6.7943L0.957043 6.79436L1.21885 6.36838ZM4.742 8.53376L4.48019 8.95973L4.4803 8.9598L4.742 8.53376ZM5.86876 8.39846L5.51411 8.04601L5.5137 8.04642L5.86876 8.39846ZM9.90311 4.339L10.2578 4.69151L10.2637 4.6854L9.90311 4.339ZM10.6454 4.339L10.2848 4.68545L10.2908 4.69146L10.6454 4.339ZM10.6454 5.08593L10.9999 5.43871L11.006 5.43232L10.6454 5.08593ZM6.60406 9.14609L6.9583 9.49896L6.95844 9.49882L6.60406 9.14609ZM6.46891 10.2792L6.89672 10.0204L6.89639 10.0198L6.46891 10.2792ZM8.62159 13.8376L9.05105 13.5816L9.0494 13.5788L8.62159 13.8376ZM9.95914 14.493L10.0215 14.989L10.0231 14.9888L9.95914 14.493ZM11.1006 13.5205L11.5789 13.6663L11.58 13.6628L11.1006 13.5205ZM14.441 2.26734L13.963 2.12063L13.9617 2.12506L14.441 2.26734ZM14.463 0.558447C13.9822 0.0650321 13.2718 -0.117015 12.6133 0.0750501L12.8933 1.03505C13.2012 0.945259 13.5272 1.03098 13.7467 1.2563L14.463 0.558447ZM12.6137 0.0749391L1.34605 3.35154L1.62528 4.31177L12.8929 1.03516L12.6137 0.0749391ZM1.35182 3.3499C0.65234 3.54423 0.157257 4.10632 0.0258165 4.80378L1.00852 4.98898C1.07176 4.65342 1.29937 4.40235 1.61951 4.31341L1.35182 3.3499ZM0.0258795 4.80344C-0.0494985 5.20191 0.0480485 5.61143 0.211619 5.945C0.375972 6.28017 0.634663 6.59612 0.95695 6.7943L1.48076 5.94246C1.34926 5.8616 1.20739 5.70438 1.10948 5.50472C1.01079 5.30347 0.984392 5.11651 1.00845 4.98931L0.0258795 4.80344ZM0.957043 6.79436L4.48019 8.95973L5.00381 8.10778L1.48066 5.94241L0.957043 6.79436ZM4.4803 8.9598C5.03939 9.30323 5.76126 9.21704 6.22382 8.7505L5.5137 8.04642C5.37822 8.18307 5.1673 8.20821 5.0037 8.10771L4.4803 8.9598ZM6.22341 8.75092L10.2578 4.69146L9.54847 3.98655L5.51411 8.04601L6.22341 8.75092ZM10.2637 4.6854C10.2663 4.68269 10.268 4.68185 10.269 4.68144C10.2703 4.68089 10.2721 4.68046 10.2743 4.68046C10.2764 4.68046 10.2782 4.68089 10.2796 4.68144C10.2805 4.68185 10.2822 4.68269 10.2848 4.6854L11.006 3.99261C10.6062 3.57641 9.94238 3.57641 9.54254 3.99261L10.2637 4.6854ZM10.2908 4.69146C10.2949 4.6956 10.2977 4.70087 10.2977 4.70982C10.2977 4.71899 10.2945 4.72948 10.2848 4.73953L11.006 5.43232C11.3918 5.03076 11.4002 4.38914 11.0001 3.98655L10.2908 4.69146ZM10.291 4.73319L6.24969 8.79336L6.95844 9.49882L10.9998 5.43866L10.291 4.73319ZM6.24983 8.79322C5.78763 9.25721 5.70166 9.97848 6.04143 10.5385L6.89639 10.0198C6.79497 9.85265 6.82105 9.63674 6.9583 9.49896L6.24983 8.79322ZM6.0411 10.538L8.19378 14.0964L9.0494 13.5788L6.89672 10.0204L6.0411 10.538ZM8.19214 14.0937C8.53536 14.6693 9.13355 15 9.78406 15V14C9.48219 14 9.21202 13.8515 9.05104 13.5816L8.19214 14.0937ZM9.78406 15C9.83314 15 9.92871 15.0007 10.0215 14.989L9.89675 13.9969C9.87751 13.9993 9.84704 14 9.78406 14V15ZM10.0231 14.9888C10.7684 14.8927 11.3618 14.3788 11.5789 13.6663L10.6224 13.3748C10.5174 13.7193 10.2423 13.9523 9.89516 13.9971L10.0231 14.9888ZM11.58 13.6628L14.9203 2.40963L13.9617 2.12506L10.6213 13.3783L11.58 13.6628ZM14.919 2.41405C15.1213 1.75496 14.9368 1.04475 14.463 0.558447L13.7467 1.2563C13.9732 1.48874 14.0548 1.82141 13.963 2.12064L14.919 2.41405Z" fill="white"/>
</svg>
