<svg width="21" height="24" viewBox="0 0 21 24" fill="none" xmlns="http://www.w3.org/2000/svg">
<g clip-path="url(#clip0_3_673)">
<path d="M20.7051 12.2245C20.7051 11.2413 20.6346 10.5237 20.482 9.77963H10.5645V14.2176H16.3859C16.2686 15.3205 15.6348 16.9815 14.2263 18.0976L14.2066 18.2461L17.3423 20.9963L17.5596 21.0209C19.5548 18.9347 20.7051 15.8653 20.7051 12.2245Z" fill="#4285F4"/>
<path d="M10.5634 23.9176C13.4154 23.9176 15.8097 22.8545 17.5585 21.0209L14.2253 18.0976C13.3333 18.8018 12.1361 19.2935 10.5634 19.2935C7.77006 19.2935 5.39923 17.2074 4.5541 14.324L4.43021 14.3359L1.16959 17.1927L1.12695 17.3269C2.86399 21.2334 6.432 23.9176 10.5634 23.9176Z" fill="#34A853"/>
<path d="M4.5558 14.3239C4.3328 13.5799 4.20374 12.7825 4.20374 11.9588C4.20374 11.1349 4.3328 10.3377 4.54407 9.59357L4.53816 9.4351L1.23668 6.53238L1.12866 6.59055C0.412747 8.21165 0.00195312 10.0321 0.00195312 11.9588C0.00195312 13.8854 0.412747 15.7058 1.12866 17.3269L4.5558 14.3239Z" fill="#FBBC05"/>
<path d="M10.5634 4.62406C12.5469 4.62406 13.8849 5.59404 14.6478 6.40464L17.629 3.10931C15.798 1.18263 13.4154 3.05176e-05 10.5634 3.05176e-05C6.43199 3.05176e-05 2.86399 2.68409 1.12695 6.59059L4.54236 9.59362C5.39922 6.71023 7.77005 4.62406 10.5634 4.62406Z" fill="#EB4335"/>
</g>
<defs>
<clipPath id="clip0_3_673">
<rect width="20.7158" height="24" fill="white"/>
</clipPath>
</defs>
</svg>
