<svg width="16" height="15" viewBox="0 0 16 15" fill="none" xmlns="http://www.w3.org/2000/svg">
<path d="M8.43073 0.998533L8.92959 0.964633L8.92844 0.947661L8.92612 0.930806L8.43073 0.998533ZM8.43598 1.07585H8.93598V1.05888L8.93484 1.04195L8.43598 1.07585ZM11.958 4.03008V4.53008V4.03008ZM15.2334 7.25714L15.7334 7.24587L15.7328 7.23458L15.2334 7.25714ZM15.2369 7.41607H15.7371L15.7368 7.4048L15.2369 7.41607ZM12.1186 14.4963L12.1307 14.9963L12.1427 14.9957L12.1186 14.4963ZM11.9654 14.5V15.0001L11.9774 14.9999L11.9654 14.5ZM0.50369 11.2736L0.003689 11.2847L0.00419 11.2959L0.50369 11.2736ZM0.500125 11.114H0L0.00025 11.1252L0.500125 11.114ZM3.61106 4.03378L3.599 3.53378L3.58692 3.53437L3.61106 4.03378ZM3.76433 4.03008L3.76431 3.52994L3.75227 3.53023L3.76433 4.03008ZM7.30118 8.74763L6.942 9.09546L7.80116 9.98267L7.80118 8.74764L7.30118 8.74763ZM6.12223 7.5302L6.48141 7.18237L6.12223 7.5302ZM5.25978 8.2869L4.8471 8.56921L4.85901 8.58663L4.87236 8.60299L5.25978 8.2869ZM5.31908 8.35958L4.93166 8.67567L4.94484 8.6918L4.95929 8.70679L5.31908 8.35958ZM7.46328 10.5814L7.83423 10.2461L7.82874 10.2401L7.82306 10.2342L7.46328 10.5814ZM8.21138 10.634L8.52942 11.0198L8.54352 11.0082L8.55674 10.9955L8.21138 10.634ZM8.26645 10.5814L8.6118 10.9429L8.61915 10.9359L8.62623 10.9286L8.26645 10.5814ZM10.4107 8.35958L10.0515 8.01174L10.0509 8.01236L10.4107 8.35958ZM10.4107 7.5302L10.7698 7.18237L10.4107 7.5302ZM9.67105 7.4736L9.36728 7.07645L9.35244 7.0878L9.3385 7.10022L9.67105 7.4736ZM9.6075 7.5302L9.27495 7.15681L9.26058 7.16962L9.24722 7.1835L9.6075 7.5302ZM8.43591 8.74763L7.93591 8.74762L7.93589 9.9883L8.79618 9.09434L8.43591 8.74763ZM7.80126 4.02986V1.07585H6.80126V4.02986H7.80126ZM7.80126 1.07585C7.80126 1.0534 7.80996 1.03369 7.82385 1.01946C7.83701 1.00599 7.85187 1 7.86862 1V0C7.26449 0 6.80126 0.49689 6.80126 1.07585H7.80126ZM7.86862 1C7.87885 1 7.89307 1.00371 7.90826 1.0173C7.92406 1.03145 7.93307 1.04964 7.93535 1.06626L8.92612 0.930806C8.85572 0.415827 8.4135 0 7.86862 0V1ZM7.93188 1.03243L7.93714 1.10975L8.93484 1.04195L8.92959 0.964633L7.93188 1.03243ZM7.93599 1.07585V4.02986H8.93598V1.07585H7.93599ZM8.43596 4.52986L11.958 4.53008V3.53008L8.43602 3.52986L8.43596 4.52986ZM11.958 4.53008C13.4288 4.53008 14.6643 5.74009 14.7339 7.27971L15.7328 7.23458C15.6406 5.19222 13.9945 3.53008 11.958 3.53008V4.53008ZM14.7335 7.26841L14.7371 7.42734L15.7368 7.4048L15.7332 7.24587L14.7335 7.26841ZM14.7369 7.41607V11.1292H15.7369V7.41607H14.7369ZM14.7369 11.1292C14.7369 12.6772 13.5447 13.9271 12.0946 13.9969L12.1427 14.9957C14.1479 14.8993 15.7369 13.1883 15.7369 11.1292H14.7369ZM12.1066 13.9965L11.9534 14.0001L11.9774 14.9999L12.1307 14.9962L12.1066 13.9965ZM11.9654 14H3.7717V15H11.9654V14ZM3.7717 14C2.30137 14 1.07245 12.7977 1.00319 11.2512L0.00419 11.2959C0.095932 13.3445 1.73466 15 3.7717 15V14ZM1.00356 11.2624L1 11.1028L0.00025 11.1252L0.003814 11.2847L1.00356 11.2624ZM1.00013 11.114V7.40846H0.000125V11.114H1.00013ZM1.00013 7.40846C1.00013 5.85765 2.18823 4.60318 3.63523 4.5332L3.58692 3.53437C1.57947 3.63145 0.000125 5.35218 0.000125 7.40846H1.00013ZM3.62314 4.53364L3.77641 4.52994L3.75227 3.53023L3.599 3.53393L3.62314 4.53364ZM3.76436 4.53008L7.30128 4.52986L7.30122 3.52986L3.76431 3.53008L3.76436 4.53008ZM6.80126 4.02985L6.80118 8.74762L7.80118 8.74764L7.80126 4.02987L6.80126 4.02985ZM7.66037 8.3998L6.48141 7.18237L5.76304 7.87803L6.942 9.09546L7.66037 8.3998ZM6.48141 7.18237C6.06388 6.75121 5.37742 6.75121 4.95989 7.18237L5.67826 7.87803C5.69186 7.86398 5.70654 7.859 5.72065 7.859C5.73477 7.859 5.74943 7.86398 5.76304 7.87803L6.48141 7.18237ZM4.95989 7.18237C4.74627 7.40296 4.65696 7.68628 4.65696 7.94869H5.65696C5.65696 7.90675 5.67081 7.88571 5.67826 7.87803L4.95989 7.18237ZM4.65696 7.94869C4.65696 8.15646 4.71572 8.37717 4.8471 8.56921L5.67244 8.00458C5.66423 7.99258 5.65696 7.97224 5.65696 7.94869H4.65696ZM4.87236 8.60299L4.93166 8.67567L5.70647 8.04348L5.64717 7.9708L4.87236 8.60299ZM4.95929 8.70679L7.10351 10.9286L7.82306 10.2342L5.67885 8.01236L4.95929 8.70679ZM7.09235 10.9167C7.29729 11.1434 7.5832 11.2564 7.86855 11.2564V10.2564C7.85662 10.2564 7.84804 10.2541 7.84285 10.2518C7.83797 10.2497 7.8356 10.2476 7.83423 10.2461L7.09235 10.9167ZM7.86855 11.2564C8.10402 11.2564 8.34007 11.1759 8.52942 11.0198L7.89335 10.2482C7.89116 10.25 7.88769 10.2521 7.88284 10.2538C7.87788 10.2556 7.87285 10.2564 7.86855 10.2564V11.2564ZM8.55674 10.9955L8.6118 10.9429L7.92107 10.2198L7.86601 10.2724L8.55674 10.9955ZM8.62623 10.9286L10.7704 8.70679L10.0509 8.01236L7.90665 10.2342L8.62623 10.9286ZM10.7698 8.70741C11.1786 8.28525 11.1786 7.60452 10.7698 7.18237L10.0515 7.87803C10.0659 7.89294 10.0764 7.91589 10.0764 7.94489C10.0764 7.97388 10.0659 7.99684 10.0515 8.01174L10.7698 8.70741ZM10.7698 7.18237C10.3906 6.79073 9.78868 6.75415 9.36728 7.07645L9.9748 7.87076C9.99739 7.85348 10.0288 7.85463 10.0515 7.87803L10.7698 7.18237ZM9.3385 7.10022L9.27495 7.15681L9.94003 7.90359L10.0036 7.84699L9.3385 7.10022ZM9.24722 7.1835L8.07565 8.40093L8.79618 9.09434L9.96776 7.8769L9.24722 7.1835ZM8.93591 8.74764L8.93598 4.02987L7.93599 4.02985L7.93591 8.74762L8.93591 8.74764ZM8.43598 3.52986H7.30126V4.52986H8.43598V3.52986Z" fill="white"/>
</svg>
