<svg width="323" height="10" viewBox="0 0 323 10" fill="none" xmlns="http://www.w3.org/2000/svg">
<path d="M0 4.48232H139.069V3.42813H0V4.48232Z" fill="#35383F"/>
<path d="M158.36 10C157.617 10 156.939 9.77546 156.325 9.32638C155.717 8.87729 155.229 8.27641 154.863 7.52372C154.503 6.76471 154.322 5.92663 154.322 5.00949C154.322 4.31373 154.427 3.6654 154.637 3.06452C154.847 2.45731 155.135 1.926 155.501 1.47059C155.873 1.00886 156.303 0.648324 156.793 0.388994C157.283 0.129665 157.805 0 158.36 0C159.103 0 159.778 0.224541 160.387 0.673624C161 1.12271 161.487 1.72676 161.848 2.48577C162.214 3.24478 162.397 4.08602 162.397 5.00949C162.397 5.69892 162.292 6.34409 162.082 6.94497C161.872 7.54586 161.582 8.07717 161.21 8.5389C160.844 8.99431 160.416 9.35168 159.926 9.61101C159.442 9.87034 158.92 10 158.36 10ZM158.36 8.02657C158.807 8.02657 159.208 7.88741 159.563 7.60911C159.918 7.3308 160.198 6.96395 160.403 6.50854C160.613 6.04681 160.718 5.54712 160.718 5.00949C160.718 4.4592 160.61 3.95319 160.395 3.49146C160.185 3.02973 159.902 2.66287 159.547 2.39089C159.191 2.11259 158.796 1.97343 158.36 1.97343C157.918 1.97343 157.517 2.11259 157.157 2.39089C156.801 2.6692 156.519 3.03922 156.309 3.50095C156.104 3.96268 156.002 4.46553 156.002 5.00949C156.002 5.57242 156.11 6.08159 156.325 6.537C156.54 6.99241 156.826 7.3561 157.181 7.62808C157.541 7.89374 157.934 8.02657 158.36 8.02657ZM168.654 2.24858C168.514 2.14738 168.36 2.06831 168.193 2.01139C168.032 1.94813 167.854 1.91651 167.66 1.91651C167.241 1.91651 166.874 2.04617 166.562 2.3055C166.25 2.56483 166.005 2.91588 165.827 3.35863C165.655 3.80139 165.569 4.29159 165.569 4.82922V9.75332H163.881V0.265655H165.561V1.54649C165.841 1.07211 166.18 0.698925 166.578 0.426945C166.982 0.148639 167.432 0.00948698 167.927 0.00948698C168.11 0.00948698 168.282 0.0189747 168.444 0.0379501C168.611 0.0569257 168.769 0.0948762 168.92 0.151802L168.654 2.24858Z" fill="#8982FF"/>
<path d="M158.36 10C157.617 10 156.939 9.77546 156.325 9.32638C155.717 8.87729 155.229 8.27641 154.863 7.52372C154.503 6.76471 154.322 5.92663 154.322 5.00949C154.322 4.31373 154.427 3.6654 154.637 3.06452C154.847 2.45731 155.135 1.926 155.501 1.47059C155.873 1.00886 156.303 0.648324 156.793 0.388994C157.283 0.129665 157.805 0 158.36 0C159.103 0 159.778 0.224541 160.387 0.673624C161 1.12271 161.487 1.72676 161.848 2.48577C162.214 3.24478 162.397 4.08602 162.397 5.00949C162.397 5.69892 162.292 6.34409 162.082 6.94497C161.872 7.54586 161.582 8.07717 161.21 8.5389C160.844 8.99431 160.416 9.35168 159.926 9.61101C159.442 9.87034 158.92 10 158.36 10ZM158.36 8.02657C158.807 8.02657 159.208 7.88741 159.563 7.60911C159.918 7.3308 160.198 6.96395 160.403 6.50854C160.613 6.04681 160.718 5.54712 160.718 5.00949C160.718 4.4592 160.61 3.95319 160.395 3.49146C160.185 3.02973 159.902 2.66287 159.547 2.39089C159.191 2.11259 158.796 1.97343 158.36 1.97343C157.918 1.97343 157.517 2.11259 157.157 2.39089C156.801 2.6692 156.519 3.03922 156.309 3.50095C156.104 3.96268 156.002 4.46553 156.002 5.00949C156.002 5.57242 156.11 6.08159 156.325 6.537C156.54 6.99241 156.826 7.3561 157.181 7.62808C157.541 7.89374 157.934 8.02657 158.36 8.02657ZM168.654 2.24858C168.514 2.14738 168.36 2.06831 168.193 2.01139C168.032 1.94813 167.854 1.91651 167.66 1.91651C167.241 1.91651 166.874 2.04617 166.562 2.3055C166.25 2.56483 166.005 2.91588 165.827 3.35863C165.655 3.80139 165.569 4.29159 165.569 4.82922V9.75332H163.881V0.265655H165.561V1.54649C165.841 1.07211 166.18 0.698925 166.578 0.426945C166.982 0.148639 167.432 0.00948698 167.927 0.00948698C168.11 0.00948698 168.282 0.0189747 168.444 0.0379501C168.611 0.0569257 168.769 0.0948762 168.92 0.151802L168.654 2.24858Z" fill="#8982FF"/>
<path d="M183.93 4.48232H322.999V3.42813H183.93V4.48232Z" fill="#35383F"/>
</svg>
