<svg width="40" height="40" viewBox="0 0 40 40" fill="none" xmlns="http://www.w3.org/2000/svg">
<rect width="40" height="40" rx="7" fill="#EDECFF"/>
<path d="M20.3325 26.3276L20.142 26.9712C20.2662 27.0096 20.3988 27.0096 20.523 26.9712L20.3325 26.3276ZM24.766 16.2845L25.2313 15.8094L25.2309 15.809L24.766 16.2845ZM15.8996 16.2845L16.3646 16.7599L16.3649 16.7595L15.8996 16.2845ZM20.3325 26.3276C20.523 26.9712 20.5233 26.9711 20.5236 26.971C20.5237 26.971 20.524 26.9709 20.5242 26.9708C20.5247 26.9707 20.5252 26.9705 20.5258 26.9703C20.527 26.9699 20.5285 26.9694 20.5302 26.9689C20.5337 26.9678 20.5384 26.9663 20.5441 26.9645C20.5555 26.9608 20.5712 26.9556 20.591 26.9489C20.6305 26.9356 20.6862 26.9161 20.7558 26.8904C20.8948 26.8388 21.0901 26.7616 21.3228 26.6565C21.7865 26.4468 22.4088 26.1219 23.0353 25.6605C24.2803 24.7437 25.6272 23.218 25.6272 20.9333H24.3121C24.3121 22.607 23.3404 23.7785 22.2668 24.5692C21.7341 24.9616 21.1971 25.243 20.7913 25.4264C20.5893 25.5177 20.4223 25.5836 20.3077 25.626C20.2505 25.6472 20.2066 25.6625 20.1782 25.672C20.164 25.6769 20.1537 25.6803 20.1475 25.6823C20.1445 25.6833 20.1424 25.6839 20.1415 25.6842C20.141 25.6843 20.1408 25.6844 20.1409 25.6843C20.1409 25.6843 20.1411 25.6843 20.1412 25.6842C20.1413 25.6842 20.1415 25.6842 20.1415 25.6842C20.1417 25.6842 20.142 25.6841 20.3325 26.3276ZM25.6272 20.9333C25.6272 19.9487 25.6376 19.1912 25.6475 18.6018C25.6573 18.0183 25.667 17.5829 25.6647 17.2621C25.6625 16.952 25.6501 16.6792 25.5912 16.4463C25.5203 16.1661 25.3916 15.9736 25.2313 15.8094L24.3007 16.7595C24.3262 16.7857 24.3159 16.7746 24.3181 16.7831C24.3322 16.839 24.3475 16.9623 24.3497 17.272C24.3519 17.5709 24.3428 17.9789 24.3327 18.5787C24.3227 19.1726 24.3121 19.9384 24.3121 20.9333H25.6272ZM25.2309 15.809C25.1048 15.6801 24.9258 15.5782 24.798 15.5099C24.646 15.4287 24.4614 15.3419 24.2607 15.2539C23.8578 15.0773 23.3579 14.8824 22.8563 14.7015C22.3542 14.5205 21.841 14.3502 21.4102 14.2243C21.1952 14.1614 20.9948 14.1078 20.8232 14.0693C20.6673 14.0343 20.486 14 20.3325 14V15.3448C20.331 15.3448 20.3907 15.349 20.5414 15.3829C20.6765 15.4132 20.8485 15.4587 21.0486 15.5173C21.4479 15.634 21.9352 15.7954 22.419 15.9698C22.9032 16.1444 23.3744 16.3286 23.7427 16.49C23.9276 16.571 24.0785 16.6428 24.1891 16.7019C24.3237 16.7738 24.334 16.7937 24.301 16.7599L25.2309 15.809ZM20.3325 14C20.179 14 19.9977 14.0343 19.8418 14.0693C19.6702 14.1078 19.4698 14.1614 19.2548 14.2243C18.824 14.3502 18.3108 14.5205 17.8088 14.7015C17.3072 14.8824 16.8074 15.0773 16.4045 15.2539C16.2039 15.3419 16.0192 15.4288 15.8674 15.5099C15.7396 15.5782 15.5604 15.6802 15.4343 15.8094L16.3649 16.7595C16.3318 16.7935 16.3418 16.7738 16.4764 16.7018C16.5869 16.6428 16.7378 16.571 16.9226 16.49C17.2908 16.3286 17.7619 16.1444 18.2461 15.9698C18.7298 15.7954 19.2171 15.634 19.6164 15.5173C19.8165 15.4587 19.9885 15.4132 20.1236 15.3829C20.2743 15.349 20.334 15.3448 20.3325 15.3448V14ZM15.4347 15.809C15.2743 15.9731 15.1453 16.1656 15.0742 16.446C15.0151 16.679 15.0026 16.9519 15.0004 17.262C14.998 17.5828 15.0077 18.0183 15.0175 18.6018C15.0274 19.1912 15.0378 19.9487 15.0378 20.9333H16.3529C16.3529 19.9384 16.3423 19.1726 16.3323 18.5787C16.3223 17.9789 16.3132 17.571 16.3154 17.2721C16.3176 16.9624 16.333 16.8392 16.3471 16.7835C16.3492 16.7752 16.3388 16.7862 16.3646 16.7599L15.4347 15.809ZM15.0378 20.9333C15.0378 23.218 16.3847 24.7437 17.6297 25.6605C18.2562 26.1219 18.8785 26.4468 19.3422 26.6565C19.5749 26.7616 19.7702 26.8388 19.9092 26.8904C19.9788 26.9161 20.0345 26.9356 20.074 26.9489C20.0938 26.9556 20.1095 26.9608 20.1209 26.9645C20.1266 26.9663 20.1313 26.9678 20.1348 26.9689C20.1365 26.9694 20.138 26.9699 20.1392 26.9703C20.1398 26.9705 20.1403 26.9707 20.1408 26.9708C20.141 26.9709 20.1413 26.971 20.1414 26.971C20.1417 26.9711 20.142 26.9712 20.3325 26.3276C20.523 25.6841 20.5233 25.6842 20.5235 25.6842C20.5235 25.6842 20.5237 25.6842 20.5238 25.6842C20.524 25.6843 20.5241 25.6843 20.5241 25.6843C20.5242 25.6844 20.524 25.6843 20.5235 25.6842C20.5226 25.6839 20.5205 25.6833 20.5175 25.6823C20.5113 25.6803 20.501 25.6769 20.4868 25.672C20.4584 25.6625 20.4145 25.6472 20.3573 25.626C20.2427 25.5836 20.0757 25.5177 19.8737 25.4264C19.4679 25.243 18.9309 24.9616 18.3982 24.5692C17.3246 23.7785 16.3529 22.607 16.3529 20.9333H15.0378Z" fill="#8982FF"/>
<path d="M19.2283 19.8376C18.9717 19.5748 18.5554 19.5744 18.2984 19.8368C18.0414 20.0992 18.0411 20.5249 18.2977 20.7877L19.2283 19.8376ZM19.9066 21.484L19.4413 21.9591C19.5646 22.0854 19.7319 22.1563 19.9064 22.1564C20.0809 22.1564 20.2483 22.0855 20.3716 21.9593L19.9066 21.484ZM22.7277 19.5487C22.9844 19.286 22.9843 18.8603 22.7274 18.5977C22.4706 18.3352 22.0543 18.3353 21.7976 18.598L22.7277 19.5487ZM18.2977 20.7877L19.4413 21.9591L20.3719 21.0089L19.2283 19.8376L18.2977 20.7877ZM20.3716 21.9593L22.7277 19.5487L21.7976 18.598L19.4415 21.0086L20.3716 21.9593Z" fill="#8982FF"/>
</svg>
