<svg width="40" height="40" viewBox="0 0 40 40" fill="none" xmlns="http://www.w3.org/2000/svg">
<rect width="40" height="40" rx="7" fill="#EDECFF"/>
<path d="M19.5 15.3448C22.3468 15.3448 24.6552 17.6527 24.6552 20.5H26C26 16.9099 23.0894 14 19.5 14V15.3448ZM24.6552 20.5C24.6552 23.3467 22.3467 25.6552 19.5 25.6552V27C23.0894 27 26 24.0894 26 20.5H24.6552ZM19.5 25.6552C16.6527 25.6552 14.3448 23.3468 14.3448 20.5H13C13 24.0894 15.9099 27 19.5 27V25.6552ZM14.3448 20.5C14.3448 17.6527 16.6527 15.3448 19.5 15.3448V14C15.9099 14 13 16.9099 13 20.5H14.3448Z" fill="#8982FF"/>
<path d="M19.8526 18.1084C19.8526 17.7371 19.5516 17.436 19.1802 17.436C18.8089 17.436 18.5078 17.7371 18.5078 18.1084H19.8526ZM18.5078 20.8925C18.5078 21.2638 18.8089 21.5649 19.1802 21.5649C19.5516 21.5649 19.8526 21.2638 19.8526 20.8925H18.5078ZM18.5078 18.1084V20.8925H19.8526V18.1084H18.5078Z" fill="#8982FF"/>
<path d="M19.4083 21.9039C18.9131 21.9039 18.5117 22.3053 18.5117 22.8005C18.5117 23.2956 18.9131 23.697 19.4083 23.697V21.9039ZM19.4146 23.697C19.9097 23.697 20.3111 23.2956 20.3111 22.8005C20.3111 22.3053 19.9097 21.9039 19.4146 21.9039V23.697ZM19.4083 23.697H19.4146V21.9039H19.4083V23.697Z" fill="#8982FF"/>
</svg>
