<svg width="28" height="19" viewBox="0 0 28 19" fill="none" xmlns="http://www.w3.org/2000/svg">
<path d="M22.6572 8.62413C22.6572 12.4374 18.147 15.5285 12.5832 15.5285V17.2482C19.5327 17.2482 25.1663 13.3871 25.1663 8.62413H22.6572ZM12.5832 15.5285C7.01942 15.5285 2.50911 12.4374 2.50911 8.62413H0C0 13.3871 5.6337 17.2482 12.5832 17.2482V15.5285ZM2.50911 8.62413C2.50911 4.81089 7.01942 1.71966 12.5832 1.71966V0C5.6337 0 0 3.86116 0 8.62413H2.50911ZM12.5832 1.71966C18.147 1.71966 22.6572 4.81089 22.6572 8.62413H25.1663C25.1663 3.86116 19.5327 0 12.5832 0V1.71966Z" fill="#AAAAAA"/>
<path d="M25.4579 18.6647C25.9478 19.0005 26.7421 19.0005 27.2321 18.6648C27.722 18.329 27.7221 17.7846 27.2322 17.4488L25.4579 18.6647ZM22.214 14.0092C21.724 13.6734 20.9297 13.6733 20.4398 14.0091C19.9498 14.3449 19.9498 14.8893 20.4397 15.2251L22.214 14.0092ZM27.2322 17.4488L22.214 14.0092L20.4397 15.2251L25.4579 18.6647L27.2322 17.4488Z" fill="#AAAAAA"/>
</svg>
