<svg width="40" height="40" viewBox="0 0 40 40" fill="none" xmlns="http://www.w3.org/2000/svg">
<rect width="40" height="40" rx="7" fill="#EDECFF"/>
<path d="M24.3897 21.7939L25.0476 21.8521C25.0493 21.8327 25.05 21.8133 25.05 21.7939H24.3897ZM14.6604 21.7939H14C14 21.8133 14.0008 21.8327 14.0025 21.8521L14.6604 21.7939ZM19.525 24.5801C21.1364 24.5801 22.4312 24.4796 23.3544 24.1115C23.8319 23.9211 24.2433 23.6468 24.545 23.2494C24.8486 22.8495 25.0029 22.3754 25.0476 21.8521L23.7318 21.7358C23.7043 22.0585 23.6179 22.2717 23.5001 22.4268C23.3806 22.5844 23.1899 22.7328 22.8727 22.8593C22.2065 23.1249 21.1411 23.2353 19.525 23.2353V24.5801ZM25.05 21.7939C25.05 21.2951 24.9723 20.9029 24.8439 20.5609C24.7212 20.2339 24.5552 19.9675 24.4361 19.7645C24.3121 19.5531 24.2137 19.3725 24.1398 19.1394C24.0664 18.9075 24.0091 18.5962 24.0091 18.1369H22.6884C22.6884 18.7151 22.7612 19.1682 22.8829 19.5523C23.0042 19.9352 23.1661 20.222 23.3023 20.4542C23.4435 20.6948 23.5377 20.8479 23.6102 21.041C23.677 21.2189 23.7293 21.4473 23.7293 21.7939H25.05ZM24.0091 18.1369C24.0091 16.1307 22.1907 14 19.525 14V15.3448C21.4896 15.3448 22.6884 16.9019 22.6884 18.1369H24.0091ZM19.525 14C16.8593 14 15.041 16.1307 15.041 18.1369H16.3617C16.3617 16.9019 17.5605 15.3448 19.525 15.3448V14ZM15.041 18.1369C15.041 18.5962 14.9837 18.9075 14.9102 19.1394C14.8363 19.3725 14.738 19.5531 14.6139 19.7645C14.4948 19.9675 14.3289 20.2339 14.2062 20.5609C14.0778 20.9029 14 21.2951 14 21.7939H15.3207C15.3207 21.4473 15.3731 21.2189 15.4399 21.041C15.5123 20.8479 15.6066 20.6948 15.7477 20.4542C15.884 20.222 16.0458 19.9352 16.1671 19.5523C16.2888 19.1682 16.3617 18.7151 16.3617 18.1369H15.041ZM14.0025 21.8521C14.0472 22.3766 14.2015 22.8515 14.5052 23.2519C14.8072 23.6499 15.2189 23.924 15.6966 24.1141C16.6199 24.4813 17.9146 24.5801 19.525 24.5801V23.2353C17.9086 23.2353 16.8434 23.1264 16.1772 22.8614C15.8602 22.7354 15.6699 22.5872 15.5503 22.4297C15.4326 22.2745 15.3459 22.0606 15.3182 21.7358L14.0025 21.8521Z" fill="#8982FF"/>
<path d="M21.3832 26.1116C21.6272 25.8357 21.6054 25.4105 21.3344 25.162C21.0634 24.9135 20.6458 24.9357 20.4018 25.2117L21.3832 26.1116ZM18.5969 25.2122C18.3531 24.936 17.9356 24.9133 17.6643 25.1615C17.393 25.4097 17.3707 25.8348 17.6145 26.1111L18.5969 25.2122ZM20.4018 25.2117C19.8808 25.8007 19.1201 25.8052 18.5969 25.2122L17.6145 26.1111C18.6676 27.3044 20.3427 27.288 21.3832 26.1116L20.4018 25.2117Z" fill="#8982FF"/>
</svg>
