<svg width="39" height="15" viewBox="0 0 39 15" fill="none" xmlns="http://www.w3.org/2000/svg">
<path d="M22.7826 3.86435C22.7826 4.22051 23.5214 4.50922 24.4327 4.50922C25.344 4.50922 26.0828 4.22051 26.0828 3.86435H22.7826ZM26.0828 10.3235C26.0828 9.96741 25.344 9.67867 24.4327 9.67867C23.5214 9.67867 22.7826 9.96741 22.7826 10.3235H26.0828ZM26.0828 3.86435V3.21391H22.7826V3.86435H26.0828ZM26.0828 3.21391C26.0828 1.43903 22.4006 0 17.8592 0V1.28974C20.5781 1.28974 22.7826 2.15134 22.7826 3.21391H26.0828ZM17.8592 0H9.16308V1.28974H17.8592V0ZM9.16308 0C4.62318 0 0.941406 1.43915 0.941406 3.21391H4.24149C4.24149 2.15123 6.44634 1.28974 9.16308 1.28974V0ZM0.941406 3.21391V10.9733H4.24149V3.21391H0.941406ZM0.941406 10.9733C0.941406 12.748 4.62318 14.1872 9.16308 14.1872V12.8974C6.44634 12.8974 4.24149 12.036 4.24149 10.9733H0.941406ZM9.16308 14.1872H17.8771V12.8974H9.16308V14.1872ZM17.8771 14.1872C22.4072 14.1872 26.0828 12.7519 26.0828 10.981H22.7826C22.7826 12.0391 20.5858 12.8974 17.8771 12.8974V14.1872ZM26.0828 10.981V10.3235H22.7826V10.981H26.0828Z" fill="white"/>
<path d="M36.551 7.39C37.4623 7.39 38.2011 7.10128 38.2011 6.74512C38.2011 6.38897 37.4623 6.10025 36.551 6.10025V7.39ZM15.0719 6.10025C14.1606 6.10025 13.4219 6.38897 13.4219 6.74512C13.4219 7.10128 14.1606 7.39 15.0719 7.39V6.10025ZM36.551 6.10025H15.0719V7.39H36.551V6.10025Z" fill="white"/>
<path d="M32.4939 4.60413C31.8481 4.35285 30.8033 4.35376 30.1604 4.60615C29.5174 4.85855 29.5198 5.26686 30.1656 5.51814L32.4939 4.60413ZM36.5528 7.09335L37.7171 7.55028C38.0281 7.42926 38.2029 7.26481 38.2028 7.0933C38.2028 6.92179 38.0279 6.75735 37.7169 6.63634L36.5528 7.09335ZM30.1654 8.66934C29.5197 8.92066 29.5175 9.32897 30.1606 9.58133C30.8036 9.83368 31.8484 9.83452 32.4941 9.5832L30.1654 8.66934ZM30.1656 5.51814L35.3886 7.55036L37.7169 6.63634L32.4939 4.60413L30.1656 5.51814ZM35.3884 6.63643L30.1654 8.66934L32.4941 9.5832L37.7171 7.55028L35.3884 6.63643Z" fill="white"/>
</svg>
