<svg width="40" height="40" viewBox="0 0 40 40" fill="none" xmlns="http://www.w3.org/2000/svg">
<rect width="40" height="40" rx="7" fill="#EDECFF"/>
<path d="M21.1938 14.6799L21.67 14.2142C21.5455 14.0821 21.3736 14.0075 21.1938 14.0075V14.6799ZM17.0492 14.6799L17.0466 15.3523H17.0492V14.6799ZM14.6606 17.0464L14.0008 17.0306C14.0006 17.0359 14.0006 17.0411 14.0006 17.0464H14.6606ZM14.6606 23.8452L15.3206 23.8599C15.3207 23.855 15.3207 23.8502 15.3207 23.8452H14.6606ZM16.9918 26.3273L16.9772 26.9996C16.982 26.9997 16.9869 26.9998 16.9918 26.9998V26.3273ZM17.0492 26.3273V25.6549C17.0421 25.6549 17.035 25.655 17.0279 25.6552L17.0492 26.3273ZM22.0261 26.3273V26.9998C22.0351 26.9998 22.044 26.9995 22.0529 26.9991L22.0261 26.3273ZM24.3493 23.8452H23.6892V23.8501L24.3493 23.8452ZM24.3493 18.0282H25.0093C25.0093 17.8546 24.9434 17.6878 24.8254 17.5625L24.3493 18.0282ZM21.1938 14.0075H17.0492V15.3523H21.1938V14.0075ZM17.0517 14.0075C15.3967 14.001 14.0398 15.3448 14.0008 17.0306L15.3205 17.0623C15.3426 16.1092 16.11 15.3486 17.0466 15.3523L17.0517 14.0075ZM14.0006 17.0464V23.8452H15.3207V17.0464H14.0006ZM14.0007 23.8306C13.9641 25.5426 15.2963 26.9615 16.9772 26.9996L17.0065 25.655C16.0546 25.6335 15.2998 24.8298 15.3206 23.8599L14.0007 23.8306ZM16.9918 26.9998C16.9983 26.9998 16.998 26.9998 17.0151 26.9999C17.0275 27 17.0474 27.0001 17.0704 26.9994L17.0279 25.6552C17.0315 25.6551 17.0325 25.6552 17.0259 25.6551C17.0219 25.6551 17.0197 25.6551 17.013 25.655C17.0075 25.6549 17 25.6549 16.9918 25.6549V26.9998ZM17.0492 26.9998H22.0261V25.6549H17.0492V26.9998ZM22.0529 26.9991C23.7129 26.9306 25.0212 25.5334 25.0093 23.8405L23.6892 23.8501C23.696 24.8176 22.9483 25.6162 21.9994 25.6555L22.0529 26.9991ZM25.0093 23.8452V18.0282H23.6892V23.8452H25.0093ZM24.8254 17.5625L21.67 14.2142L20.7177 15.1456L23.873 18.4939L24.8254 17.5625Z" fill="#8982FF"/>
<path d="M21.6912 14.6724C21.6912 14.3011 21.3957 14 21.0312 14C20.6666 14 20.3711 14.3011 20.3711 14.6724H21.6912ZM22.631 18.1527L22.6291 18.8252H22.631V18.1527ZM24.3473 18.8252C24.7118 18.8252 25.0073 18.5241 25.0073 18.1527C25.0073 17.7814 24.7118 17.4803 24.3473 17.4803V18.8252ZM20.3711 14.6724V16.5186H21.6912V14.6724H20.3711ZM20.3711 16.5186C20.3711 17.7904 21.3807 18.8216 22.6291 18.8252L22.6328 17.4803C22.1119 17.4788 21.6912 17.049 21.6912 16.5186H20.3711ZM22.631 18.8252H24.3473V17.4803H22.631V18.8252Z" fill="#8982FF"/>
<path d="M20.9148 23.029C21.2793 23.029 21.5749 22.728 21.5749 22.3566C21.5749 21.9852 21.2793 21.6842 20.9148 21.6842V23.029ZM17.5507 21.6842C17.1861 21.6842 16.8906 21.9852 16.8906 22.3566C16.8906 22.728 17.1861 23.029 17.5507 23.029V21.6842ZM20.9148 21.6842H17.5507V23.029H20.9148V21.6842Z" fill="#8982FF"/>
<path d="M19.6414 20.648C20.006 20.648 20.3015 20.3469 20.3015 19.9756C20.3015 19.6042 20.006 19.3032 19.6414 19.3032V20.648ZM17.5507 19.3032C17.1861 19.3032 16.8906 19.6042 16.8906 19.9756C16.8906 20.3469 17.1861 20.648 17.5507 20.648V19.3032ZM19.6414 19.3032H17.5507V20.648H19.6414V19.3032Z" fill="#8982FF"/>
</svg>
