<svg width="39" height="15" viewBox="0 0 39 15" fill="none" xmlns="http://www.w3.org/2000/svg">
<path d="M22.3644 4.46608C22.3644 4.79877 23.1169 5.06847 24.0451 5.06847C24.9734 5.06847 25.7259 4.79877 25.7259 4.46608H22.3644ZM25.7259 10.4997C25.7259 10.167 24.9734 9.89734 24.0451 9.89734C23.1169 9.89734 22.3644 10.167 22.3644 10.4997H25.7259ZM25.7259 4.46608V3.85849H22.3644V4.46608H25.7259ZM25.7259 3.85849C25.7259 2.20055 21.9753 0.856323 17.3495 0.856323V2.0611C20.1189 2.0611 22.3644 2.86592 22.3644 3.85849H25.7259ZM17.3495 0.856323H8.4917V2.0611H17.3495V0.856323ZM8.4917 0.856323C3.86741 0.856323 0.117188 2.20065 0.117188 3.85849H3.47862C3.47862 2.86582 5.72446 2.0611 8.4917 2.0611V0.856323ZM0.117188 3.85849V11.1067H3.47862V3.85849H0.117188ZM0.117188 11.1067C0.117188 12.7645 3.86741 14.1088 8.4917 14.1088V12.9041C5.72446 12.9041 3.47862 12.0993 3.47862 11.1067H0.117188ZM8.4917 14.1088H17.3677V12.9041H8.4917V14.1088ZM17.3677 14.1088C21.982 14.1088 25.7259 12.7681 25.7259 11.1138H22.3644C22.3644 12.1022 20.1267 12.9041 17.3677 12.9041V14.1088ZM25.7259 11.1138V10.4997H22.3644V11.1138H25.7259Z" fill="white"/>
<path d="M36.3911 7.75946C37.3194 7.75946 38.0719 7.48976 38.0719 7.15707C38.0719 6.82439 37.3194 6.55469 36.3911 6.55469V7.75946ZM14.5127 6.55469C13.5845 6.55469 12.832 6.82439 12.832 7.15707C12.832 7.48976 13.5845 7.75946 14.5127 7.75946V6.55469ZM36.3911 6.55469H14.5127V7.75946H36.3911V6.55469Z" fill="white"/>
<path d="M32.2532 5.15718C31.5954 4.92245 30.5312 4.9233 29.8763 5.15907C29.2214 5.39484 29.2238 5.77625 29.8816 6.01097L32.2532 5.15718ZM36.3876 7.4824L37.5736 7.90923C37.8903 7.79618 38.0683 7.64257 38.0683 7.48236C38.0683 7.32215 37.8902 7.16855 37.5734 7.05551L36.3876 7.4824ZM29.8814 8.95456C29.2237 9.18933 29.2215 9.57073 29.8766 9.80647C30.5316 10.0422 31.5957 10.043 32.2534 9.80822L29.8814 8.95456ZM29.8816 6.01097L35.2018 7.9093L37.5734 7.05551L32.2532 5.15718L29.8816 6.01097ZM35.2016 7.05559L29.8814 8.95456L32.2534 9.80822L37.5736 7.90923L35.2016 7.05559Z" fill="white"/>
</svg>
