<svg width="40" height="40" viewBox="0 0 40 40" fill="none" xmlns="http://www.w3.org/2000/svg">
<rect width="40" height="40" rx="7" fill="#EDECFF"/>
<path d="M22.3866 16.8215C22.5055 17.1724 22.8801 17.3584 23.2234 17.2369C23.5667 17.1154 23.7486 16.7324 23.6298 16.3815L22.3866 16.8215ZM20.357 14.6724L20.3544 15.3449H20.357V14.6724ZM17.5406 17.527L16.8828 17.524V17.527H17.5406ZM16.8828 18.8922C16.8828 19.2635 17.1773 19.5646 17.5406 19.5646C17.9039 19.5646 18.1984 19.2635 18.1984 18.8922H16.8828ZM23.6298 16.3815C23.1607 14.9965 21.8736 14 20.357 14V15.3449C21.2956 15.3449 22.0952 15.9612 22.3866 16.8215L23.6298 16.3815ZM20.3596 14C18.4479 13.9923 16.8912 15.5694 16.8828 17.524L18.1984 17.5299C18.2035 16.3182 19.1686 15.34 20.3544 15.3449L20.3596 14ZM16.8828 17.527V17.5396H18.1984V17.527H16.8828ZM16.8828 17.5396V18.8922H18.1984V17.5396H16.8828Z" fill="#8982FF"/>
<path d="M22.7037 25.6552H17.9947V27H22.7037V25.6552ZM17.9947 25.6552C17.0676 25.6552 16.3155 24.8866 16.3155 23.938H15C15 25.6291 16.3408 27 17.9947 27V25.6552ZM16.3155 23.938V21.2366H15V23.938H16.3155ZM16.3155 21.2366C16.3155 20.288 17.0676 19.5194 17.9947 19.5194V18.1746C16.3408 18.1746 15 19.5455 15 21.2366H16.3155ZM17.9947 19.5194H22.7037V18.1746H17.9947V19.5194ZM22.7037 19.5194C23.6308 19.5194 24.3828 20.288 24.3828 21.2366H25.6984C25.6984 19.5455 24.3575 18.1746 22.7037 18.1746V19.5194ZM24.3828 21.2366V23.938H25.6984V21.2366H24.3828ZM24.3828 23.938C24.3828 24.8866 23.6308 25.6552 22.7037 25.6552V27C24.3575 27 25.6984 25.6291 25.6984 23.938H24.3828Z" fill="#8982FF"/>
<path d="M20.6984 21.8877C20.6984 21.5164 20.4039 21.2153 20.0406 21.2153C19.6773 21.2153 19.3828 21.5164 19.3828 21.8877H20.6984ZM19.3828 23.2876C19.3828 23.659 19.6773 23.96 20.0406 23.96C20.4039 23.96 20.6984 23.659 20.6984 23.2876H19.3828ZM19.3828 21.8877V23.2876H20.6984V21.8877H19.3828Z" fill="#8982FF"/>
</svg>
