<svg width="568" height="146" viewBox="0 0 568 146" fill="none" xmlns="http://www.w3.org/2000/svg">
<path d="M86.6424 124.706C74.0457 129.092 70.4756 136.81 70.4756 136.81C70.4756 136.81 87.3289 137.415 99.9256 133.029C112.522 128.643 116.093 120.926 116.093 120.926C116.093 120.926 99.2392 120.32 86.6424 124.706Z" fill="#F1F1F1"/>
<path d="M91.8906 126.766C85.8364 133.538 70.674 137.027 70.674 137.027C70.674 137.027 65.3272 129.538 71.3814 122.766C77.4355 115.994 92.5978 112.504 92.5978 112.504C92.5978 112.504 97.9445 119.994 91.8906 126.766Z" fill="#F1F1F1"/>
<path d="M454.312 107.189C452.973 102.977 452.62 98.7108 453.257 94.464L454.312 87.4354C448.501 92.8359 449.814 99.9439 454.312 107.189V107.189Z" fill="#CACACA"/>
<path d="M458.842 108.365C458.197 105.852 458.027 103.317 458.334 100.79L458.842 96.6066C456.045 99.8212 456.677 104.052 458.842 108.365Z" fill="#CACACA"/>
<path d="M478.982 113.538V115.89C478.98 116.077 478.82 116.256 478.537 116.388C478.254 116.52 477.871 116.595 477.471 116.596H474.954C474.888 116.595 474.822 116.601 474.761 116.613C474.7 116.625 474.644 116.642 474.598 116.664C474.551 116.686 474.514 116.712 474.488 116.741C474.463 116.769 474.45 116.8 474.451 116.831V136.114C474.449 136.3 474.289 136.479 474.006 136.611C473.723 136.743 473.34 136.818 472.94 136.819H442.229C441.829 136.819 441.445 136.744 441.162 136.612C440.879 136.48 440.719 136.301 440.719 136.114V116.831C440.719 116.768 440.666 116.709 440.571 116.665C440.477 116.621 440.349 116.596 440.216 116.596H437.195C436.794 116.595 436.41 116.521 436.127 116.389C435.844 116.256 435.685 116.077 435.685 115.89V113.538C435.684 113.446 435.723 113.354 435.799 113.268C435.875 113.183 435.986 113.105 436.126 113.039C436.267 112.974 436.433 112.922 436.617 112.886C436.8 112.851 436.997 112.833 437.195 112.833H477.471C477.872 112.834 478.255 112.908 478.538 113.04C478.821 113.172 478.981 113.352 478.982 113.538Z" fill="#F2F2F2"/>
<path d="M474.495 117.089H440.764V117.795H474.495V117.089Z" fill="#E6E6E6"/>
<path d="M474.45 127.47C463.163 129.652 451.752 129.676 440.215 127.47V122.5C451.322 120.758 463.343 120.758 474.45 122.5V127.47Z" fill="#E6E6E6"/>
<path d="M285.381 51.4785C310.578 51.4785 331.005 41.9376 331.005 30.1683C331.005 18.399 310.578 8.85803 285.381 8.85803C260.183 8.85803 239.757 18.399 239.757 30.1683C239.757 41.9376 260.183 51.4785 285.381 51.4785Z" fill="#FEB8B8"/>
<path d="M327.995 11.7836C321.174 6.60993 310.497 2.79764 298.019 1.0806L292.418 2.98974V0.510778C289.421 0.296543 286.388 0.214014 283.358 0.264275L278.526 2.30653V0.433946C271.371 0.849226 264.478 1.95243 258.282 3.67398C252.085 5.39553 246.72 7.6981 242.523 10.4365C232.029 17.5028 230.258 27.3336 240.579 34.4566C243.413 30.3894 246.852 26.5731 249.686 22.5063C251.913 22.6481 254.17 22.6532 256.399 22.5215L259.846 18.7645L260.809 22.3625C271.495 21.9278 287.342 20.9731 297.472 20.0984L296.486 17.338L302.38 19.6318C305.483 19.2981 307.325 18.9953 307.173 18.7641C314.707 24.4368 323.926 28.0599 331.459 33.7327C334.32 25.7338 337.613 19.0828 327.995 11.7836Z" fill="#2F2E41"/>
<path d="M383.506 84.9685C381.937 80.5599 380.319 76.0666 375.932 72.0951C373.049 69.4937 368.472 67.0147 362.303 66.5004C361.088 66.4498 359.893 66.3207 358.754 66.1167C356.946 65.71 332.654 59.2328 328.793 58.1046C325.478 57.1361 320.245 55.3429 317.606 55.3429C314.952 55.3157 304.773 56.4222 265.043 54.9716C265.043 54.9716 254.129 56.981 245.684 59.4175C245.556 59.3781 204.448 69.6888 202.904 69.6618C199.979 69.6042 197.26 70.4789 195.584 71.5804C193.908 72.6818 193.121 74.0453 192.298 75.3637C201.276 84.7031 209.491 94.0545 218.471 103.394C218.891 103.746 219.115 104.141 219.12 104.544C218.94 104.962 218.558 105.356 218.003 105.695C213.6 108.999 213.74 113.154 214.221 117.037C214.702 120.92 215.298 125.022 211.582 128.503C210.572 129.458 209.257 130.333 208.296 131.289C206.045 133.453 205.232 140.375 206.547 142.7L371.26 144.904C367.718 140.357 383.506 84.9685 383.506 84.9685Z" fill="#8982FF"/>
<path d="M178.06 103.808C177.731 104.918 177.698 106.044 177.962 107.158L180.322 122.994C180.544 124.486 180.762 125.975 181.062 127.464C181.628 130.353 182.475 133.22 183.525 136.082C183.549 136.488 183.916 136.874 184.548 137.154C185.179 137.433 186.023 137.585 186.893 137.575C197.285 138.602 208.022 138.561 218.628 138.281C234.812 137.859 276.216 137.061 278.746 135.526C281.276 133.991 279.801 131.508 276.503 130.267C273.204 129.026 218.565 126 218.565 126C219.099 124.024 220.709 122.163 222.237 120.287C224.982 116.959 227.545 113.522 227.594 109.957C227.643 106.392 224.768 102.644 218.516 100.602C213.373 98.9255 206.752 98.6146 200.485 98.6836C195.925 98.7448 188.047 98.2345 183.882 99.0673C180.586 99.7452 178.676 102.301 178.06 103.808Z" fill="#FBBEBE"/>
<path d="M191.823 75.6477C191.023 76.0391 190.402 76.5026 190 77.01C183.359 84.0002 179.437 91.4868 178.417 99.1194C178.435 99.4915 178.251 99.8598 177.883 100.19C177.52 100.41 177.115 100.614 176.675 100.8C176.291 101.013 176 101.259 175.82 101.524C175.639 101.789 175.572 102.068 175.623 102.345C175.673 102.622 175.84 102.892 176.113 103.139C176.387 103.386 176.762 103.606 177.217 103.785C177.292 103.814 177.369 103.843 177.447 103.87C178.803 102.678 182.047 102.289 184.932 102.185C198.741 101.675 212.23 104.676 226.08 104.449C225.103 102.872 223.698 101.357 222.901 99.7606C219.376 92.6734 228.167 84.9571 222.778 78.1308C221.701 76.7647 219.902 75.4217 217.068 74.8231C215.895 74.6021 214.667 74.4502 213.413 74.3712C209.913 74.0758 202.946 72.8134 199.562 73.3199C198.313 73.5081 197.821 74.0565 196.785 74.3881C195.213 74.8573 193.126 75.0298 191.823 75.6477Z" fill="#8982FF"/>
<path d="M383.604 99.0673C379.439 98.2345 371.561 98.7448 367.001 98.6836C360.734 98.6145 354.113 98.9256 348.97 100.602C342.718 102.644 339.843 106.392 339.892 109.957C339.941 113.522 342.504 116.959 345.249 120.287C346.777 122.163 348.387 124.024 348.921 126C348.921 126 294.281 129.026 290.983 130.267C287.685 131.508 286.21 133.991 288.74 135.526C291.27 137.061 370.201 138.602 380.593 137.575C381.463 137.585 382.307 137.433 382.938 137.154C383.57 136.874 383.937 136.488 383.961 136.082C385.011 133.22 385.857 130.353 386.424 127.464C386.724 125.975 386.942 124.486 387.164 122.994L389.524 107.158C389.788 106.044 389.755 104.918 389.426 103.808C388.81 102.301 386.9 99.7452 383.604 99.0673Z" fill="#FBBEBE"/>
<path d="M370.701 74.3882C369.666 74.0566 369.173 73.5082 367.924 73.32C364.541 72.8135 357.574 74.0759 354.074 74.3713C352.82 74.4504 351.592 74.6022 350.418 74.8232C347.584 75.4218 345.786 76.7648 344.709 78.1309C339.32 84.9573 348.11 92.6735 344.586 99.7607C343.789 101.357 342.383 102.872 341.406 104.45C355.257 104.676 368.746 101.675 382.555 102.186C385.439 102.289 388.684 102.678 390.039 103.87C390.118 103.843 390.194 103.814 390.269 103.785C390.724 103.606 391.099 103.386 391.373 103.139C391.647 102.892 391.813 102.622 391.864 102.345C391.914 102.068 391.847 101.789 391.667 101.524C391.486 101.259 391.195 101.013 390.812 100.8C390.371 100.614 389.967 100.41 389.604 100.19C389.236 99.86 389.052 99.4917 389.07 99.1195C388.05 91.487 384.127 84.0003 377.487 77.0101C377.084 76.5027 376.464 76.0392 375.664 75.6478C374.36 75.0299 372.274 74.8574 370.701 74.3882Z" fill="#8982FF"/>
<path d="M271.869 138.331C278.669 138.331 284.182 135.756 284.182 132.579C284.182 129.403 278.669 126.828 271.869 126.828C265.068 126.828 259.555 129.403 259.555 132.579C259.555 135.756 265.068 138.331 271.869 138.331Z" fill="#FBBEBE"/>
<path d="M299.135 138.331C305.936 138.331 311.449 135.756 311.449 132.579C311.449 129.403 305.936 126.828 299.135 126.828C292.334 126.828 286.821 129.403 286.821 132.579C286.821 135.756 292.334 138.331 299.135 138.331Z" fill="#FBBEBE"/>
<path d="M375.146 145.54H205.972C203.996 145.539 202.103 145.172 200.706 144.52C199.31 143.867 198.524 142.983 198.521 142.06V94.1216C198.524 93.1991 199.31 92.3146 200.706 91.6623C202.103 91.01 203.996 90.643 205.972 90.642H375.146C377.122 90.643 379.015 91.01 380.412 91.6623C381.808 92.3146 382.594 93.1991 382.597 94.1216V142.06C382.594 142.983 381.808 143.867 380.412 144.52C379.015 145.172 377.122 145.539 375.146 145.54Z" fill="#3F3D56"/>
<path d="M290.148 120.393C292.87 120.393 295.077 119.363 295.077 118.091C295.077 116.819 292.87 115.789 290.148 115.789C287.426 115.789 285.219 116.819 285.219 118.091C285.219 119.363 287.426 120.393 290.148 120.393Z" fill="white"/>
<path d="M567.378 135.87H0.108398V144.013H33.6618V145.905H533.838V144.013H567.378V135.87Z" fill="#F1F1F1"/>
<path d="M243.428 38.1111C236.097 38.1111 230.154 35.1098 230.154 31.4075V28.0556C230.154 24.3533 236.097 21.3521 243.428 21.3521V38.1111H243.428Z" fill="#8982FF"/>
<path d="M328.148 21.3521C335.479 21.3521 341.422 24.3534 341.422 28.0556V31.4075C341.422 35.1098 335.479 38.111 328.148 38.111V21.3521Z" fill="#8982FF"/>
<path d="M335.106 28.5823H333C333 15.0934 311.27 4.1193 284.561 4.1193C257.851 4.1193 236.122 15.0934 236.122 28.5823H234.016C234.016 14.5069 256.69 3.05569 284.561 3.05569C312.432 3.0557 335.106 14.5069 335.106 28.5823Z" fill="#8982FF"/>
</svg>
