<svg width="295" height="190" viewBox="0 0 295 190" fill="none" xmlns="http://www.w3.org/2000/svg">
<path d="M84.58 42.2417C82.3364 42.7362 80.0451 43.1555 77.718 43.4973C74.644 43.9308 72.9083 44.1318 69.9413 43.4654C69.8371 43.4421 69.7377 43.4189 69.6439 43.3962C64.02 42.0126 59.2126 39.7129 55.8068 36.777C52.401 33.8412 50.5437 30.3957 50.4609 26.8601C50.4461 26.7388 50.4461 26.6113 50.4461 26.4869C50.4432 25.8877 50.4927 25.2887 50.5944 24.6925C50.7244 23.8801 50.949 23.0738 51.2666 22.279L51.2369 22.2759C48.8348 20.8546 47.9105 18.9078 48.2169 16.9515C48.4269 15.6253 49.1543 14.344 50.3444 13.204C51.5345 12.0641 53.1562 11.0953 55.0874 10.3707C58.1138 9.26972 61.5263 8.57277 65.0767 8.33054C66.03 8.26693 66.9888 8.23474 67.9485 8.23413H76.9641C78.8261 7.98188 80.7177 7.80933 82.6236 7.71785H82.6384C100.783 6.84705 115.093 13.8073 113.758 22.2759C113.748 22.2853 113.733 22.2946 113.723 22.3039C113.338 22.6678 112.997 23.013 112.695 23.3427C112.404 23.6506 112.157 23.946 111.944 24.2259C110.288 26.3905 118.157 59.9739 115.335 60.484C113.728 60.7732 107.253 35.7828 108.415 40.5349C109.878 46.4969 92.9394 40.4537 84.58 42.2417Z" fill="#2F2E41"/>
<path d="M111.916 102.95L137.068 133.955L40.3125 128.285L60.5098 98.5211L111.916 102.95Z" fill="#FFB6B6"/>
<path d="M162.408 165.114C145.582 168.355 127.851 169.729 110.145 169.165L102.446 161.94C102.446 161.94 102.123 164.631 101.642 168.744C93.214 168.179 84.8954 167.158 76.7955 165.696C61.4348 162.917 47.0359 158.61 32.4403 154.639C29.4841 144.442 28.3748 128.719 44.719 119.565L132.692 128.892C132.692 128.892 146.806 135.001 143.03 137.189C139.254 139.374 138.67 139.036 141.151 140.471C143.631 141.907 148.992 143.826 149.047 145.081C149.069 145.571 155.085 154.459 162.408 165.114Z" fill="#2F2E41"/>
<path d="M96.5535 43.0382L75.2997 43.8962L61.5625 51.5769L56.7514 52.0738C52.4268 52.52 48.5356 53.8688 45.8155 55.8646C43.0954 57.8604 41.7356 60.3643 41.994 62.9017C42.9836 72.603 45.1993 87.0984 49.8304 91.8013C57.0114 99.0935 62.9427 96.8056 57.0114 99.0935C51.0801 101.381 47.0979 99.5837 49.8304 103.2C52.5629 106.815 46.1373 111.453 46.1373 111.453L43.5794 112.933L46.2924 113.577L132.738 120.085C132.738 120.085 125.264 100.64 129.938 95.8626C134.613 91.0856 145.947 76.6459 135.831 70.9959L125.941 50.8569L108.928 47.9536L96.5535 43.0382Z" fill="#8982FF"/>
<path d="M225.213 122.85C223.791 122.824 222.396 122.619 221.123 122.251C219.851 121.882 218.732 121.357 217.845 120.714C216.957 120.07 216.322 119.323 215.983 118.523C215.643 117.723 215.608 116.89 215.88 116.082L175.33 100.192L180.168 92.6218L228.092 111.698C230.409 112.064 232.414 112.909 233.727 114.073C235.039 115.237 235.568 116.639 235.213 118.014C234.858 119.389 233.645 120.64 231.801 121.531C229.958 122.423 227.614 122.892 225.213 122.85Z" fill="#FFB6B6"/>
<path d="M110.678 49.9058L104.785 51.2558L136.218 86.777L201.288 112.441L210.668 103.268L161.136 78.5128L141.305 56.507C138.514 53.4101 133.839 51.0214 128.183 49.8022C122.526 48.5831 116.29 48.62 110.678 49.9058Z" fill="#8982FF"/>
<path d="M84.8185 39.9141C96.6053 39.9141 106.16 34.3854 106.16 27.5654C106.16 20.7453 96.6053 15.2166 84.8185 15.2166C73.0317 15.2166 63.4766 20.7453 63.4766 27.5654C63.4766 34.3854 73.0317 39.9141 84.8185 39.9141Z" fill="#FFB6B6"/>
<path d="M103.379 22.343C103.023 22.4516 102.672 22.5517 102.316 22.6518C101.945 22.7548 101.575 22.8578 101.199 22.955C94.0567 24.8282 88.2389 25.037 84.7098 22.343C84.6132 20.9256 84.0618 19.531 83.0837 18.2303C83.2565 19.6838 82.5944 21.1297 81.2005 22.343H74.0927C66.7725 25.1543 63.016 27.7368 68.0972 36.9659C68.4283 37.5723 70.6971 59.1135 71.3446 60.7695C60.2629 58.3099 50.7035 32.1955 50.4614 25.3144C50.4465 25.2029 50.4465 25.0856 50.4465 24.9712C50.4437 24.42 50.4932 23.8691 50.5948 23.321C50.7252 22.5728 50.9499 21.831 51.267 21.1017L51.2374 21.0988C50.1099 20.4752 49.2497 19.7077 48.7254 18.8576C48.2011 18.0076 48.0271 17.0984 48.2174 16.2026C50.0763 14.7942 52.3769 13.6008 54.9988 12.6848C57.383 12.0168 59.8681 11.4769 62.4229 11.0718C62.4871 11.0632 62.5415 11.0547 62.6058 11.0461C63.3867 10.9231 64.1874 10.8116 64.9881 10.7143C66.6383 10.5141 68.3066 10.368 69.9853 10.2768C70.1089 10.2739 70.2275 10.2682 70.3362 10.2682C71.0077 10.2684 71.6667 10.3731 72.2441 10.5713C72.2492 10.5713 72.2492 10.5742 72.259 10.5742C72.8138 10.766 73.2741 11.0373 73.5952 11.3619C73.9164 11.6865 74.0877 12.0534 74.0927 12.4274H82.0111C82.3026 12.4274 82.5943 12.4332 82.8859 12.4417C93.9132 12.6963 102.776 15.4247 103.344 21.6966C103.369 21.914 103.379 22.1256 103.379 22.343Z" fill="#2F2E41"/>
<path d="M56.5641 22.8399C64.3294 22.8399 70.6243 19.1974 70.6243 14.7044C70.6243 10.2113 64.3294 6.56895 56.5641 6.56895C48.7989 6.56895 42.5039 10.2113 42.5039 14.7044C42.5039 19.1974 48.7989 22.8399 56.5641 22.8399Z" fill="#2F2E41"/>
<path d="M75.8678 10.9413C74.2703 15.3383 66.3896 17.9681 58.8502 16.8923C55.2296 16.3758 52.112 15.0482 50.1832 13.2016C48.2544 11.355 47.6724 9.14062 48.5652 7.04572C50.4244 2.68331 59.5744 3.94095 65.5828 1.09468C74.0825 -2.93178 78.022 5.01162 75.8678 10.9413Z" fill="#2F2E41"/>
<path d="M44.6278 133.336C56.6111 105.061 80.3547 80.7575 119.677 61.7162C121.199 60.2676 123.652 59.2275 126.498 58.824C129.343 58.4204 132.349 58.6865 134.856 59.5638L228.337 92.3591C230.839 93.2397 232.637 94.6589 233.335 96.3054C234.032 97.9519 233.572 99.6912 232.056 101.142C217.048 130.155 194.567 155.331 157.007 172.762C155.485 174.211 153.032 175.25 150.186 175.654C147.341 176.058 144.335 175.791 141.828 174.914L48.3479 142.119C45.8444 141.238 44.0467 139.819 43.3493 138.173C42.6519 136.526 43.1117 134.787 44.6278 133.336Z" fill="#F2F2F2"/>
<path opacity="0.2" d="M61.243 142.865C58.7394 141.985 56.9417 140.566 56.2443 138.919C55.5469 137.273 56.0068 135.533 57.5229 134.083C69.5061 105.807 93.2498 81.504 132.572 62.4627C133.58 61.5145 135.002 60.7371 136.696 60.2091L134.856 59.5637C132.349 58.6865 129.343 58.4204 126.498 58.8239C123.652 59.2274 121.199 60.2675 119.677 61.7161C80.3547 80.7574 56.6111 105.061 44.6279 133.336C43.1117 134.787 42.6519 136.526 43.3493 138.172C44.0467 139.819 45.8443 141.238 48.3479 142.119L141.828 174.914C143.491 175.493 145.39 175.808 147.332 175.826C149.273 175.843 151.189 175.564 152.883 175.016L61.243 142.865Z" fill="black"/>
<path d="M170.872 127.068L108.124 105.192C107.127 104.843 106.41 104.28 106.131 103.626C105.851 102.972 106.031 102.28 106.633 101.703C107.234 101.125 108.206 100.71 109.337 100.547C110.467 100.384 111.663 100.488 112.661 100.835L175.409 122.711C176.404 123.061 177.118 123.624 177.397 124.277C177.675 124.931 177.494 125.622 176.893 126.198C176.293 126.775 175.322 127.19 174.193 127.353C173.065 127.516 171.87 127.414 170.872 127.068Z" fill="white"/>
<path d="M134.369 98.0581L120.565 93.2453C119.564 92.899 118.843 92.337 118.558 91.6828C118.274 91.0286 118.451 90.3359 119.049 89.757C119.648 89.1782 120.619 88.7606 121.75 88.5962C122.88 88.4317 124.078 88.5339 125.078 88.8802L125.102 88.8885L138.906 93.7013C139.901 94.0504 140.616 94.6136 140.894 95.2672C141.173 95.9209 140.992 96.6117 140.391 97.1884C139.791 97.765 138.82 98.1803 137.691 98.3434C136.562 98.5064 135.368 98.4038 134.369 98.0581Z" fill="white"/>
<path d="M160.897 136.645L98.1494 114.769C97.1514 114.421 96.4328 113.858 96.1515 113.204C95.8703 112.55 96.0493 111.858 96.6494 111.28C97.2495 110.702 98.2214 110.286 99.3517 110.123C100.482 109.959 101.678 110.062 102.677 110.409L102.686 110.412L165.434 132.288C166.429 132.638 167.143 133.201 167.422 133.854C167.7 134.508 167.519 135.199 166.919 135.775C166.318 136.352 165.347 136.767 164.219 136.93C163.09 137.093 161.896 136.991 160.897 136.645H160.897Z" fill="white"/>
<path d="M178.839 85.8199C188.961 85.8199 197.167 81.072 197.167 75.2154C197.167 69.3586 188.961 64.6108 178.839 64.6108C168.717 64.6108 160.512 69.3586 160.512 75.2154C160.512 81.072 168.717 85.8199 178.839 85.8199Z" fill="#3F3D56"/>
<path d="M147.248 188.846C168.882 188.846 186.42 178.699 186.42 166.181C186.42 153.663 168.882 143.515 147.248 143.515C125.614 143.515 108.076 153.663 108.076 166.181C108.076 178.699 125.614 188.846 147.248 188.846Z" fill="white"/>
<path d="M147.248 189.162C139.392 189.162 131.713 187.814 125.181 185.289C118.65 182.764 113.559 179.175 110.553 174.975C107.547 170.776 106.76 166.155 108.292 161.697C109.825 157.239 113.608 153.144 119.163 149.93C124.717 146.716 131.794 144.527 139.499 143.64C147.204 142.754 155.19 143.209 162.447 144.948C169.705 146.687 175.908 149.633 180.273 153.412C184.637 157.192 186.966 161.635 186.966 166.18C186.955 172.273 182.766 178.115 175.32 182.423C167.874 186.732 157.778 189.155 147.248 189.162ZM147.248 143.831C139.608 143.831 132.141 145.142 125.789 147.598C119.437 150.053 114.486 153.544 111.562 157.628C108.639 161.712 107.874 166.205 109.364 170.541C110.855 174.876 114.534 178.858 119.935 181.984C125.337 185.11 132.22 187.238 139.713 188.101C147.205 188.963 154.972 188.52 162.029 186.829C169.087 185.137 175.12 182.272 179.364 178.597C183.608 174.922 185.874 170.601 185.874 166.18C185.862 160.255 181.789 154.574 174.548 150.384C167.306 146.195 157.488 143.838 147.248 143.831Z" fill="#3F3D56"/>
<path d="M141.905 177.977C141.229 177.977 140.562 177.886 139.957 177.711C139.352 177.536 138.826 177.282 138.42 176.969L127.733 168.724C127.389 168.459 127.139 168.157 126.996 167.837C126.854 167.516 126.822 167.182 126.903 166.854C126.984 166.526 127.175 166.21 127.467 165.925C127.759 165.64 128.144 165.391 128.602 165.192C129.06 164.994 129.582 164.849 130.136 164.767C130.691 164.685 131.268 164.667 131.835 164.714C132.402 164.761 132.947 164.872 133.439 165.041C133.932 165.21 134.362 165.433 134.705 165.698L141.696 171.092L159.654 155.507C159.971 155.231 160.379 154.995 160.855 154.81C161.33 154.626 161.863 154.498 162.425 154.433C162.986 154.368 163.563 154.368 164.125 154.432C164.686 154.496 165.22 154.624 165.696 154.808C166.172 154.991 166.581 155.227 166.9 155.502C167.218 155.778 167.44 156.086 167.552 156.411C167.664 156.736 167.665 157.07 167.554 157.395C167.443 157.719 167.222 158.028 166.905 158.304L145.531 176.855C145.145 177.19 144.625 177.467 144.015 177.662C143.405 177.857 142.723 177.965 142.027 177.976C141.986 177.977 141.946 177.977 141.905 177.977Z" fill="#8982FF"/>
<path d="M273.755 51.322C275.312 51.2449 276.499 50.6746 276.406 50.048C276.314 49.4215 274.977 48.976 273.42 49.053C271.863 49.13 270.677 49.7004 270.769 50.3269C270.862 50.9535 272.199 51.399 273.755 51.322Z" fill="white"/>
<path d="M291.269 47.8841C292.826 47.8071 294.012 47.2368 293.92 46.6102C293.827 45.9837 292.49 45.5382 290.934 45.6152C289.377 45.6922 288.19 46.2625 288.283 46.8891C288.375 47.5157 289.712 47.9611 291.269 47.8841Z" fill="#3F3D56"/>
<path d="M265.453 43.5901C267.009 43.5131 268.196 42.9428 268.103 42.3162C268.011 41.6896 266.674 41.2441 265.117 41.3212C263.561 41.3982 262.374 41.9685 262.466 42.5951C262.559 43.2216 263.896 43.6671 265.453 43.5901Z" fill="#FF6584"/>
<path d="M258.105 41.0991C258.775 41.0115 259.141 40.4887 258.924 39.9315C258.706 39.3742 257.987 38.9935 257.317 39.0811C256.647 39.1687 256.28 39.6914 256.498 40.2487C256.715 40.8059 257.435 41.1867 258.105 41.0991Z" fill="#E6E6E6"/>
<path d="M252.876 35.0515C253.546 34.9639 253.913 34.4412 253.695 33.8839C253.478 33.3267 252.758 32.9459 252.088 33.0335C251.418 33.1211 251.051 33.6439 251.269 34.2011C251.487 34.7584 252.206 35.1391 252.876 35.0515Z" fill="#3F3D56"/>
<path d="M277.97 43.5444C278.64 43.4568 279.007 42.9341 278.789 42.3768C278.571 41.8196 277.852 41.4388 277.182 41.5264C276.512 41.614 276.145 42.1368 276.363 42.694C276.58 43.2513 277.3 43.632 277.97 43.5444Z" fill="#E6E6E6"/>
<path d="M270.321 47.2187C270.991 47.1311 271.358 46.6083 271.14 46.0511C270.923 45.4938 270.203 45.1131 269.533 45.2007C268.863 45.2883 268.497 45.811 268.714 46.3683C268.932 46.9255 269.651 47.3063 270.321 47.2187Z" fill="#FF6584"/>
<path d="M284.247 50.2117C284.917 50.1242 285.284 49.6014 285.066 49.0442C284.849 48.4869 284.129 48.1062 283.459 48.1938C282.789 48.2814 282.422 48.8041 282.64 49.3614C282.858 49.9186 283.577 50.2993 284.247 50.2117Z" fill="#3F3D56"/>
<path d="M201.446 4.47198C201.713 3.86241 200.702 3.18824 199.187 2.96617C197.673 2.74411 196.229 3.05824 195.962 3.66782C195.695 4.27739 196.706 4.95156 198.221 5.17363C199.735 5.39569 201.179 5.08155 201.446 4.47198Z" fill="white"/>
<path d="M182.954 4.4027C183.221 3.79313 182.21 3.11896 180.695 2.8969C179.181 2.67483 177.737 2.98897 177.47 3.59854C177.203 4.20811 178.214 4.8823 179.728 5.10437C181.243 5.32643 182.687 5.01227 182.954 4.4027Z" fill="#3F3D56"/>
<path d="M204.917 13.3501C205.184 12.7405 204.173 12.0663 202.658 11.8443C201.144 11.6222 199.7 11.9363 199.433 12.5459C199.166 13.1555 200.177 13.8297 201.691 14.0517C203.206 14.2738 204.65 13.9597 204.917 13.3501Z" fill="#FF6584"/>
<path d="M209.227 16.6977C209.337 16.1299 208.872 15.6339 208.19 15.5898C207.507 15.5456 206.865 15.9701 206.755 16.5379C206.646 17.1056 207.11 17.6017 207.793 17.6458C208.475 17.6899 209.117 17.2655 209.227 16.6977Z" fill="#E6E6E6"/>
<path d="M210.749 23.4029C210.858 22.8351 210.394 22.3391 209.711 22.2949C209.029 22.2508 208.386 22.6753 208.277 23.2431C208.167 23.8108 208.631 24.3069 209.314 24.351C209.997 24.3951 210.639 23.9706 210.749 23.4029Z" fill="#3F3D56"/>
<path d="M191.842 10.6242C191.952 10.0565 191.488 9.56045 190.805 9.51632C190.122 9.47218 189.48 9.89667 189.37 10.4644C189.261 11.0322 189.725 11.5282 190.408 11.5724C191.09 11.6165 191.733 11.192 191.842 10.6242Z" fill="#E6E6E6"/>
<path d="M201.147 8.60145C201.257 8.03369 200.792 7.53765 200.11 7.49352C199.427 7.44939 198.785 7.87387 198.675 8.44163C198.565 9.0094 199.03 9.50544 199.713 9.54958C200.395 9.59371 201.037 9.16922 201.147 8.60145Z" fill="#FF6584"/>
<path d="M189.682 3.1358C189.792 2.56804 189.327 2.072 188.645 2.02787C187.962 1.98373 187.32 2.40822 187.21 2.97598C187.101 3.54375 187.565 4.03979 188.248 4.08392C188.93 4.12806 189.573 3.70357 189.682 3.1358Z" fill="#3F3D56"/>
<path d="M50.4558 133.636C49.059 133.305 47.8033 132.802 46.7752 132.163C45.7473 131.523 44.9718 130.762 44.5023 129.932C44.0328 129.102 43.8805 128.223 44.0559 127.355C44.2313 126.488 44.7304 125.653 45.5184 124.908L15.4062 100.416L25.0665 93.931L60.4636 123.172C62.532 124.032 63.9827 125.302 64.5411 126.741C65.0993 128.179 64.7263 129.686 63.4927 130.976C62.2591 132.266 60.2507 133.249 57.8479 133.739C55.4451 134.23 52.8149 134.193 50.4558 133.636Z" fill="#FFB6B6"/>
<path d="M51.1485 56.0221C49.6251 55.5035 47.8321 55.316 46.0914 55.4933C44.3505 55.6707 42.776 56.2012 41.6504 56.9897L0.964844 89.9135L38.6697 120.899L53.4239 111.73L30.4731 90.862L60.9748 74.0583C63.4813 70.8811 63.8641 67.2791 62.0494 63.9481C60.2346 60.617 56.351 57.7933 51.1485 56.0221Z" fill="#8982FF"/>
</svg>
