<svg width="558" height="199" viewBox="0 0 558 199" fill="none" xmlns="http://www.w3.org/2000/svg">
<path d="M534.46 172.412C535.075 163.645 526.68 154.934 510.35 151.947C514.241 160.906 510.938 170.985 501.21 179.834C497.422 183.28 492.504 186.974 493.854 190.49C494.694 192.677 497.947 194.372 501.852 195.447C505.757 196.521 510.306 197.056 514.8 197.579L515.596 197.953C525.622 189.952 533.846 181.178 534.46 172.412Z" fill="#F2F2F2"/>
<path d="M510.125 152.111C518.312 157.577 522.488 164.586 521.582 171.795C521.45 173.391 520.815 174.968 519.697 176.473C518.465 177.983 516.507 179.333 513.981 180.415C511.646 181.455 509.041 182.405 507.202 183.665C506.294 184.28 505.654 184.976 505.322 185.712C504.989 186.447 504.971 187.208 505.267 187.947C505.953 189.699 507.964 191.138 510.044 192.506C512.354 194.025 514.809 195.582 515.349 197.575C515.414 197.817 516.218 197.701 516.152 197.46C515.212 193.992 508.923 191.975 506.635 188.84C505.568 187.377 505.472 185.688 507.42 184.169C509.123 182.84 511.808 181.859 514.188 180.814C516.684 179.771 518.683 178.484 520.051 177.041C521.32 175.558 522.079 173.987 522.3 172.389C522.89 168.941 522.303 165.47 520.563 162.112C518.694 158.415 515.364 154.923 510.752 151.824C510.47 151.635 509.844 151.923 510.125 152.111L510.125 152.111Z" fill="white"/>
<path d="M522.137 169.442C524.768 169.151 527.144 168.476 528.935 167.51C530.726 166.544 531.842 165.335 532.128 164.052C532.169 163.802 531.359 163.815 531.318 164.065C531.056 165.26 530.017 166.385 528.346 167.283C526.676 168.181 524.458 168.806 522.006 169.071C521.954 169.075 521.905 169.083 521.86 169.096C521.816 169.109 521.777 169.126 521.746 169.147C521.716 169.167 521.694 169.19 521.682 169.214C521.67 169.238 521.669 169.263 521.677 169.288C521.686 169.313 521.705 169.336 521.733 169.357C521.761 169.378 521.797 169.397 521.84 169.411C521.883 169.425 521.931 169.435 521.982 169.441C522.033 169.446 522.085 169.446 522.137 169.442V169.442Z" fill="white"/>
<path d="M515.29 179.953C513.264 179.281 511.559 178.412 510.286 177.402C509.014 176.392 508.203 175.266 507.908 174.096C507.841 173.854 507.037 173.97 507.105 174.211C507.417 175.428 508.266 176.6 509.595 177.649C510.924 178.698 512.703 179.6 514.815 180.297C515.219 180.428 515.692 180.084 515.29 179.953Z" fill="white"/>
<path d="M517.77 158.717C516.86 158.922 515.855 159.012 514.851 158.979C513.848 158.946 512.878 158.791 512.035 158.528C511.636 158.394 511.163 158.739 511.56 158.872C512.494 159.16 513.565 159.331 514.673 159.368C515.781 159.406 516.892 159.31 517.901 159.088C518.007 159.072 518.097 159.039 518.158 158.994C518.219 158.95 518.247 158.898 518.237 158.845C518.228 158.821 518.208 158.798 518.178 158.778C518.149 158.758 518.11 158.741 518.066 158.729C518.021 158.717 517.972 158.709 517.921 158.707C517.87 158.705 517.818 158.709 517.77 158.717Z" fill="white"/>
<path d="M452.61 167.146C452.854 167.233 453.097 167.321 453.34 167.411C456.592 168.594 459.606 169.92 462.343 171.371C462.558 171.481 462.773 171.595 462.981 171.708C469.534 175.287 474.443 179.484 477.388 184.027C478.596 185.879 479.486 187.776 480.048 189.697C480.838 192.377 481.233 195.343 483.81 197.55C484.072 197.781 484.367 198.003 484.694 198.215L514.433 198.456C514.507 198.44 514.579 198.428 514.652 198.412L515.831 198.448C515.816 198.346 515.797 198.24 515.782 198.138C515.775 198.079 515.76 198.02 515.752 197.96C515.745 197.921 515.737 197.882 515.735 197.845C515.733 197.832 515.731 197.819 515.727 197.809C515.725 197.773 515.716 197.74 515.713 197.707C515.607 197.118 515.494 196.528 515.367 195.939C515.368 195.935 515.368 195.935 515.362 195.932C514.39 191.443 512.606 187.006 509.415 182.935C509.319 182.813 509.224 182.687 509.115 182.565C507.667 180.748 505.874 178.999 503.758 177.339C502.602 176.441 501.339 175.576 499.974 174.747C496.441 172.614 492.129 170.803 487.248 169.403C477.473 166.594 465.466 165.451 453.522 167.022C453.216 167.062 452.917 167.102 452.61 167.146Z" fill="#F2F2F2"/>
<path d="M452.617 167.329C466.811 168.852 479.428 172.64 487.808 178.047C489.709 179.21 491.163 180.525 492.101 181.932C492.935 183.396 492.925 184.941 492.071 186.403C491.333 187.823 490.242 189.257 490.221 190.69C490.204 191.391 490.534 192.084 491.185 192.713C491.836 193.342 492.789 193.888 493.966 194.306C496.803 195.357 500.413 195.801 503.993 196.173C507.968 196.586 512.119 196.984 515.135 198.249C515.5 198.403 516.062 198.087 515.697 197.934C510.45 195.732 502.326 196.119 496.312 194.547C493.506 193.813 491.27 192.635 491.055 190.986C490.868 189.544 491.99 188.064 492.763 186.628C493.636 185.2 493.764 183.691 493.136 182.234C492.364 180.802 491.027 179.454 489.199 178.262C485.226 175.583 480.272 173.27 474.576 171.434C467.981 169.29 460.593 167.766 452.806 166.942C452.316 166.889 452.13 167.276 452.617 167.329Z" fill="white"/>
<path d="M485.301 176.207C489.295 174.276 490.124 171.388 487.263 169.461C486.981 169.271 486.282 169.515 486.564 169.705C489.245 171.511 488.446 174.175 484.712 175.98C484.32 176.17 484.91 176.396 485.301 176.207V176.207Z" fill="white"/>
<path d="M492.639 185.693C490.142 185.824 487.615 185.711 485.211 185.361C482.808 185.011 480.578 184.432 478.658 183.657C478.291 183.505 477.729 183.821 478.096 183.973C480.098 184.777 482.421 185.378 484.925 185.74C487.428 186.101 490.059 186.216 492.658 186.077C493.182 186.053 493.161 185.67 492.639 185.693L492.639 185.693Z" fill="white"/>
<path d="M467.785 169.823C467.19 170.248 466.406 170.606 465.489 170.871C464.572 171.135 463.544 171.3 462.478 171.353C461.954 171.373 461.976 171.756 462.497 171.736C463.673 171.675 464.809 171.493 465.823 171.202C466.838 170.911 467.708 170.517 468.373 170.049C468.445 170.012 468.484 169.963 468.481 169.912C468.479 169.862 468.435 169.814 468.36 169.778C468.271 169.749 468.161 169.737 468.054 169.746C467.947 169.754 467.851 169.782 467.785 169.823V169.823Z" fill="white"/>
<path d="M443.766 162.456C443.828 162.422 443.354 162.394 442.476 162.37V148.276H399.901V149.41H380.735C378.488 149.411 376.333 149.839 374.744 150.598C373.155 151.357 372.261 152.387 372.259 153.461V159.29C372.26 160.364 373.154 161.394 374.743 162.154C376.332 162.913 378.488 163.34 380.735 163.341L400.378 163.353L409.003 163.359H409.596L418.227 163.365L442.334 163.381H444.411C444.714 163.217 443.476 162.619 443.766 162.456Z" fill="#3F3D56"/>
<path d="M444.223 162.718C442.815 163.699 441.675 163.663 440.676 163.028C440.151 162.663 439.728 162.267 439.418 161.849C436.384 158.131 434.399 149.603 428.678 152.585C427.548 153.174 426.401 153.758 425.249 154.336C423.109 155.412 420.874 156.579 418.659 157.611C418.657 157.614 418.709 157.499 418.701 157.502C417.609 158.012 418.432 153.595 417.999 152.352C417.908 152.084 417.758 151.964 417.519 152.071C417.501 151.95 417.489 151.83 417.49 151.708C417.488 151.516 417.508 151.324 417.551 151.133C417.587 150.957 417.637 150.78 417.707 150.601L436.413 102.801C436.906 101.549 438.221 100.404 440.168 99.5338C442.115 98.6633 444.592 98.1121 447.239 97.9602C448.492 97.8936 449.76 97.9149 451 98.0235L454.406 98.3278C455.75 98.4479 457.043 98.6736 458.233 98.996L458.239 98.9966C460.513 99.6096 462.33 100.547 463.434 101.677C464.539 102.808 464.877 104.075 464.401 105.302L444.223 162.718Z" fill="#3F3D56"/>
<path d="M284.487 189.946L275.705 187.939L287.769 170.397L300.73 173.359L284.487 189.946Z" fill="#A0616A"/>
<path d="M343.364 187.118C342.725 187.309 342.086 187.497 341.441 187.685C340.157 188.061 338.861 188.431 337.564 188.795C336.913 188.977 336.255 189.159 335.603 189.337V189.347L335.565 189.35L335.552 189.353L334.558 189.47L333.133 187.67L332.475 186.84L331.546 185.666L329.843 183.517L320.876 172.204L334.816 170.561L335.339 171.581H335.345L335.603 172.087L340.474 181.526L341.467 183.456L341.499 183.514L342.099 184.667L342.615 185.666L343.19 186.782L343.364 187.118Z" fill="#A0616A"/>
<path d="M426.523 147.388C425.639 148.066 424.736 148.741 423.827 149.41C422.136 150.656 420.401 151.883 418.621 153.091C418.621 153.094 418.614 153.094 418.608 153.097C417.569 153.557 416.422 153.957 415.189 154.29C415.137 154.309 415.079 154.321 415.028 154.336C414.12 154.576 413.153 154.761 412.151 154.888C411.789 154.931 411.422 154.974 411.06 155.018C409.757 155.166 408.467 155.292 407.183 155.403C404.9 155.597 402.642 155.736 400.397 155.822C400.216 155.831 400.036 155.838 399.855 155.844C390.624 156.167 381.638 155.646 372.259 154.793C367.627 154.373 362.898 153.871 358.002 153.35C356.402 153.177 354.796 153.008 353.171 152.838C353.048 152.826 352.919 152.81 352.79 152.798C350.468 152.555 348.107 152.314 345.688 152.077C342.643 151.778 339.501 151.488 336.237 151.214L336.469 153.411C336.663 155.102 337.398 156.769 338.65 158.353C340.043 160.301 341.146 161.843 338.818 165.052L337.695 166.605C338.277 167.377 338.477 168.202 338.279 169.017C338.08 169.831 337.49 170.613 336.553 171.3L336.327 171.464L345.688 182.78L346.294 183.514H341.501L335.605 183.517H325.613L311.195 169.694L310.505 169.034V169.001L311.995 142.437C312.014 142.203 312.053 141.966 312.118 141.731C312.38 140.666 313.084 139.637 314.189 138.703C315.293 137.77 316.775 136.95 318.549 136.294C320.249 135.659 322.196 135.192 324.277 134.92C326.358 134.648 328.531 134.576 330.67 134.709L335.605 135.014L345.688 135.637L352.79 136.078L352.932 136.087L373.878 137.382L375.381 134.453L375.658 134.404L384.477 132.859L414.976 127.517L415.053 127.505L417.06 127.153L417.298 127.338C417.369 127.394 417.44 127.449 417.505 127.505C419.488 129.204 421.102 130.995 422.324 132.85C424.377 135.881 426.068 138.966 427.387 142.089C427.445 142.225 427.497 142.348 427.542 142.459L427.561 142.493C427.581 142.545 427.594 142.579 427.6 142.588C428.303 143.988 427.813 145.696 426.523 147.388Z" fill="#2F2E41"/>
<path d="M427.81 137.599C427.714 137.401 427.591 137.201 427.462 137.007C426.438 135.536 425.245 134.093 423.888 132.685C422.366 131.082 420.54 129.365 418.366 127.506C417.315 126.606 416.184 125.67 414.973 124.698C414.367 124.211 413.737 123.714 413.083 123.209C413.058 123.185 413.03 123.163 412.999 123.141L412.812 122.993L382.635 124.923L371.398 125.641L370.727 128.317L370.566 128.979C370.559 128.979 370.559 128.979 370.566 128.983L370.114 130.789V130.792L369.514 133.178L369.463 133.175L352.787 132.142L335.602 131.079L326.371 130.508C324.232 130.375 322.059 130.447 319.978 130.719C317.897 130.991 315.95 131.458 314.25 132.093C312.477 132.75 310.995 133.569 309.89 134.503C308.786 135.436 308.082 136.466 307.819 137.531C307.761 137.746 307.722 137.968 307.703 138.187L298.994 148.049C293.783 153.946 290.464 160.186 289.15 166.557L282.764 176.314L283.673 176.354L297.207 176.955L300.781 177.115L308.651 171.625C309.547 170.999 310.399 170.355 311.192 169.695C312.499 168.618 313.66 167.502 314.669 166.354L331.693 146.994C333.009 147.102 334.312 147.205 335.602 147.303C341.569 147.765 347.298 148.142 352.787 148.434C370.637 149.387 386.093 149.461 399.853 148.653C403.717 148.428 407.452 148.132 411.058 147.765C412.38 147.633 413.685 147.49 414.973 147.337C415.276 147.303 415.573 147.269 415.87 147.232C418.536 146.903 420.987 146.261 422.999 145.362C425.01 144.464 426.518 143.339 427.385 142.09C428.419 140.643 428.567 139.085 427.81 137.599Z" fill="#2F2E41"/>
<path d="M287.293 187.081L277.791 184.905L276.3 184.563L273.92 187.356L257.303 189.104C256.481 189.19 255.739 189.399 255.184 189.701C254.629 190.003 254.291 190.382 254.219 190.783C254.147 191.183 254.344 191.584 254.783 191.927C255.222 192.27 255.879 192.537 256.658 192.689L272.894 195.855L278.049 193.638L276.784 196.613L282.9 197.806L289.602 187.612L287.293 187.081Z" fill="#2F2E41"/>
<path d="M345.687 182.78L346.293 183.514H345.687V182.78Z" fill="#2F2E41"/>
<path d="M232.153 129.428C232.153 127.776 230.992 126.435 229.566 126.432H122.167C120.735 126.435 119.58 127.776 119.573 129.428V197.445C119.573 197.598 119.454 197.746 119.238 197.86C119.023 197.974 118.726 198.045 118.407 198.06C117.363 198.107 116.32 198.152 115.277 198.193C115.251 198.193 115.226 198.196 115.2 198.196C114.632 198.221 114.064 198.239 113.497 198.261H113.49C113.198 198.003 112.91 197.743 112.624 197.48C112.528 197.392 112.478 197.294 112.478 197.194V125.541C112.478 125.085 112.516 124.626 112.581 124.172C112.673 123.55 112.834 122.931 113.065 122.317C114.155 119.453 116.619 117.514 119.419 117.508H232.308C232.717 117.509 233.12 117.55 233.495 117.628C234.045 117.744 234.542 117.911 234.959 118.118C235.525 118.399 236.009 118.715 236.398 119.058C237.778 120.221 238.765 121.953 239.114 123.969C239.114 123.988 239.12 124.006 239.12 124.025C239.21 124.524 239.256 125.033 239.249 125.541L239.339 132.147L239.398 136.087L239.572 148.448L239.636 152.838L239.92 197.907C239.92 198.07 239.784 198.227 239.542 198.343C239.3 198.458 238.972 198.523 238.63 198.523H233.443C233.101 198.523 232.773 198.458 232.531 198.343C232.289 198.227 232.153 198.07 232.153 197.907V129.428Z" fill="#3F3D56"/>
<path d="M155.595 99.1813L148.124 114.889L143.35 117.388H139.906L154.101 88.8282L154.802 93.68V93.6834L155.595 99.1813Z" fill="#3F3D56"/>
<path d="M191.548 115.234L147.721 115.101L143.831 115.089L141.057 115.08L137.826 115.071H137.8C137.331 115.071 136.881 115.16 136.548 115.317L131.091 117.925C130.97 117.982 130.872 118.049 130.801 118.122C130.767 118.143 130.738 118.166 130.717 118.19C130.599 118.321 130.55 118.464 130.575 118.607C130.599 118.749 130.697 118.886 130.859 119.006C131.021 119.126 131.242 119.225 131.503 119.295C131.764 119.364 132.057 119.402 132.355 119.405H189.129C189.47 119.404 189.803 119.358 190.091 119.27C190.378 119.183 190.609 119.059 190.755 118.912L191.2 118.449L192.116 117.509L193.154 116.449C193.265 116.336 193.322 116.213 193.322 116.088C193.319 115.863 193.132 115.647 192.8 115.488C192.469 115.328 192.019 115.237 191.548 115.234Z" fill="#3F3D56"/>
<path opacity="0.17" d="M191.201 118.448L190.753 118.912C190.607 119.059 190.378 119.183 190.091 119.27C189.804 119.358 189.472 119.404 189.132 119.405H132.356C132.057 119.403 131.765 119.365 131.504 119.295C131.243 119.226 131.022 119.127 130.86 119.007C130.698 118.887 130.601 118.75 130.576 118.607C130.552 118.465 130.601 118.322 130.72 118.191C130.74 118.167 130.767 118.144 130.802 118.123L191.201 118.448Z" fill="black"/>
<path opacity="0.17" d="M154.802 93.68V93.6834L142.648 117.388H139.906L154.101 88.8282L154.802 93.68Z" fill="black"/>
<path d="M169.719 98.0235L152.515 35.4733C152.452 35.2389 152.197 35.026 151.805 34.8814L139.962 27.7975L138.897 27.406C138.503 27.2633 138.007 27.2002 137.517 27.2303L135.736 27.3443C135.245 27.3746 134.8 27.4968 134.497 27.6841C134.195 27.8714 134.06 28.1085 134.124 28.3431L151.954 93.1529V93.1559L153.044 97.1202L154.341 101.827V101.834L156.353 109.158C156.385 109.284 156.474 109.404 156.613 109.512C156.752 109.619 156.939 109.711 157.16 109.781C157.377 109.852 157.623 109.901 157.882 109.923C158.141 109.945 158.407 109.941 158.663 109.91L159.792 109.775C160.224 109.721 160.603 109.597 160.862 109.423L161.365 109.081L161.598 108.921L169.39 98.6554C169.664 98.4724 169.781 98.2464 169.719 98.0235Z" fill="#3F3D56"/>
<path opacity="0.17" d="M139.959 27.7978L161.6 108.922L161.364 109.081L160.863 109.422C160.604 109.596 160.225 109.721 159.792 109.774L158.661 109.91C158.405 109.94 158.139 109.944 157.879 109.922C157.62 109.9 157.373 109.851 157.155 109.78C156.937 109.71 156.753 109.617 156.615 109.51C156.477 109.403 156.387 109.283 156.353 109.158L134.126 28.3442C134.062 28.1095 134.195 27.8722 134.497 27.6845C134.798 27.4967 135.243 27.3739 135.735 27.343L137.52 27.2309C137.762 27.2152 138.008 27.2228 138.244 27.2531C138.48 27.2834 138.701 27.3359 138.894 27.4074L139.959 27.7978Z" fill="black"/>
<path d="M140.597 30.1179L152.081 37.9512L165.731 87.5824L158.331 94.5981L140.597 30.1179Z" fill="#8982FF"/>
<path d="M387.41 198.007L379.534 198.077L401.424 161.739L409.3 162.902L387.41 198.007Z" fill="#3F3D56"/>
<path d="M439.063 198.076L431.193 198.005L409.596 163.359L409.299 162.903L414.35 162.157C415.35 162.166 416.388 162.172 417.459 162.179L418.227 163.365L439.063 198.076Z" fill="#3F3D56"/>
<path d="M342.378 183.67L332.421 185.319L330.859 185.577L333.279 188.362L324.045 195.191C323.588 195.529 323.369 195.927 323.419 196.328C323.47 196.73 323.787 197.113 324.326 197.421C324.864 197.73 325.595 197.949 326.412 198.045C327.229 198.141 328.089 198.11 328.866 197.956L345.064 194.746L345.463 191.438L348.945 193.977L355.047 192.768L344.799 183.271L342.378 183.67Z" fill="#2F2E41"/>
<path d="M281.948 81.6737C282.42 82.1132 283.088 82.4979 283.905 82.8007C284.722 83.1035 285.668 83.317 286.676 83.4262C287.684 83.5355 288.73 83.5377 289.741 83.4328C290.751 83.3279 291.701 83.1185 292.523 82.8192L313.46 89.4609L313.499 83.2206L293.612 77.8702C292.468 77.2433 290.883 76.8385 289.157 76.7328C287.43 76.627 285.683 76.8275 284.245 77.2963C282.807 77.7651 281.779 78.4697 281.356 79.2765C280.933 80.0833 281.143 80.9362 281.948 81.6737V81.6737Z" fill="#A0616A"/>
<path d="M297.589 84.5581L307.357 79.2477L347.13 90.5311L399.853 88.2237C402.46 88.1097 405.086 88.2713 407.547 88.6969C410.008 89.1226 412.242 89.8019 414.092 90.6866C415.942 91.5713 417.361 92.6398 418.249 93.8161C419.138 94.9924 419.473 96.2478 419.232 97.493C418.791 99.7421 416.502 101.816 412.865 103.259C409.229 104.702 404.543 105.397 399.836 105.191L340.457 102.565L297.589 84.5581Z" fill="#E6E6E6"/>
<path d="M419.96 84.64L419.868 84.5851L394.949 83.41L378.112 97.5828C363.639 106.038 374.156 111.869 374.785 112.736L369.762 123.805L370.888 127.51L371.45 128.61L428.795 142.929L417.009 124.165L428.517 107.054C431.069 103.27 431.623 99.2439 430.13 95.3332C428.637 91.4227 425.143 87.7492 419.96 84.64Z" fill="#E6E6E6"/>
<path d="M447.263 72.168C447.276 72.3191 447.282 72.4701 447.282 72.6181C447.277 74.2507 446.463 75.8596 444.907 77.3133C443.352 78.7668 441.098 80.0239 438.331 80.9817C435.565 81.9395 432.363 82.5709 428.988 82.8243C425.612 83.0776 422.16 82.9458 418.912 82.4395L414.931 81.8198C414.899 81.8136 414.861 81.8106 414.828 81.8044L408.268 80.781C408.246 80.6485 408.251 80.5154 408.281 80.3833C398.495 78.3857 412.022 71.8227 415.383 66.8936C415.906 66.126 397.94 66.6994 398.792 66.0428C398.604 65.9966 398.417 65.9503 398.243 65.9041C401.278 63.6154 405.764 61.8504 411.047 60.8665C416.33 59.8827 422.132 59.7316 427.607 60.4354C427.749 60.4509 427.898 60.4724 428.04 60.4909C440.786 60.642 447.482 64.8868 447.482 70.3986C447.482 70.9899 447.408 71.5808 447.263 72.168Z" fill="#2F2E41"/>
<path d="M436.218 74.3383C434.507 76.8413 430.787 78.9172 425.874 80.1098C420.962 81.3024 415.259 81.5139 410.021 80.6978C409.427 80.6053 408.847 80.5005 408.279 80.3834C403.511 79.4069 399.681 77.6133 397.54 75.3555C395.4 73.0977 395.105 70.5388 396.713 68.1822C397.223 67.4318 397.92 66.7135 398.79 66.0429C401.461 63.9761 405.624 62.4489 410.493 61.7504C415.361 61.0519 420.597 61.2306 425.208 62.2527C429.819 63.2747 433.486 65.0692 435.515 67.2964C437.544 69.5236 437.794 72.029 436.218 74.3383Z" fill="#A0616A"/>
<path d="M414.932 81.8198C414.899 81.8137 414.861 81.8105 414.828 81.8044L408.268 80.781C408.247 80.6485 408.251 80.5154 408.281 80.3833C408.476 79.3512 409.992 78.2702 412.028 77.1032C413.338 76.3569 414.249 75.4695 414.682 74.5175C415.115 73.5654 415.057 72.5774 414.513 71.6384C413.969 70.6995 412.956 69.8379 411.56 69.1279C410.164 68.4178 408.428 67.8806 406.5 67.5627C406.444 67.5534 406.389 67.5441 406.333 67.5348C403.749 67.1224 401.229 66.6239 398.792 66.0428C398.605 65.9965 398.418 65.9503 398.243 65.904C396.605 65.4725 395.418 65.0409 394.896 64.6278C395.677 63.4827 396.922 62.4223 398.561 61.5073C400.2 60.5922 402.2 59.8404 404.447 59.2948C406.694 58.7492 409.144 58.4204 411.657 58.3273C414.17 58.2343 416.696 58.3787 419.093 58.7523L422.898 59.3442C427.699 60.0896 431.687 61.7119 433.994 63.8572C436.677 64.7758 438.793 66.126 440.451 67.7198C448.786 75.7162 432.697 84.5449 414.932 81.8198Z" fill="#2F2E41"/>
<path d="M427.491 130.181C427.491 130.723 427.147 131.252 426.504 131.699C425.861 132.146 424.95 132.489 423.891 132.684C423.389 132.776 422.86 132.832 422.324 132.85C422.182 132.856 422.033 132.859 421.891 132.859H411.06V157.971C410.899 158.072 410.731 158.174 410.564 158.276C409.635 158.843 408.693 159.41 407.738 159.968C407.532 160.092 407.325 160.212 407.126 160.332C406.809 160.514 406.5 160.696 406.19 160.875C406.08 160.936 405.977 160.995 405.874 161.057C405.345 161.359 404.816 161.661 404.274 161.963V161.966C404.268 161.969 404.268 161.969 404.268 161.972L403.997 162.12C403.565 162.364 403.132 162.61 402.687 162.854C402.083 162.693 401.548 162.479 401.113 162.222C400.843 162.067 400.614 161.897 400.43 161.716C400.423 161.713 400.423 161.71 400.417 161.704C400.409 161.697 400.402 161.69 400.397 161.682C400.035 161.322 399.85 160.926 399.855 160.526V132.859H375.574C374.858 132.862 374.147 132.795 373.484 132.665C372.648 132.506 371.906 132.252 371.319 131.926C370.733 131.599 370.32 131.21 370.117 130.791V130.788C369.815 130.179 369.975 129.539 370.569 128.981C370.562 128.978 370.562 128.978 370.569 128.978C370.819 128.735 371.153 128.513 371.556 128.322V128.319C371.556 128.316 371.556 128.316 371.562 128.313C372.085 128.057 372.709 127.854 373.398 127.715C374.087 127.577 374.827 127.505 375.574 127.505H421.891C423.376 127.505 424.8 127.787 425.85 128.289C426.9 128.791 427.49 129.471 427.491 130.181Z" fill="#3F3D56"/>
<path d="M458.332 78.3524C456.066 78.1499 453.739 78.1626 451.483 78.39C449.227 78.6173 447.087 79.0547 445.185 79.6772C443.283 80.2998 441.656 81.0953 440.397 82.0183C439.138 82.9413 438.272 83.9737 437.849 85.0567V85.0567C437.101 86.9697 437.767 88.9474 439.735 90.6514C441.702 92.3553 444.848 93.6794 448.633 94.3971L443.355 107.885L454.37 108.869L466.043 79.0414L458.332 78.3524Z" fill="#3F3D56"/>
<path d="M442.475 68.435C447.462 68.435 451.506 66.5028 451.506 64.1193C451.506 61.7358 447.462 59.8036 442.475 59.8036C437.487 59.8036 433.443 61.7358 433.443 64.1193C433.443 66.5028 437.487 68.435 442.475 68.435Z" fill="#2F2E41"/>
<path d="M547.755 76.511C543.836 77.1357 539.647 77.2422 535.516 77.2763C523.498 77.3755 511.176 76.8723 500.238 74.4909C489.3 72.1095 479.883 67.5838 477.452 61.9586C476.404 59.5342 476.527 56.8338 473.33 54.8858C469.535 52.5739 461.91 52.2588 456.598 53.7386C451.287 55.2184 448.185 58.0981 447.283 61.0044L445.144 62.6667C445.194 63.737 447.617 64.4487 449.847 64.5491C452.078 64.6494 454.32 64.3557 456.554 64.4352C461.45 64.6091 465.441 66.6103 466.868 68.855C468.295 71.0997 467.608 73.5277 466.387 75.7999C465.166 78.0721 463.421 80.2888 462.724 82.611C462.027 84.9332 462.5 87.4534 465.359 89.3605C467.505 90.7919 470.775 91.7408 474.1 92.4998C482.149 94.3374 490.966 95.2786 499.886 95.2523C508.807 95.226 517.598 94.233 525.6 92.3481C533.601 90.4633 540.603 87.7356 546.079 84.3704C551.555 81.0052 555.362 77.0902 557.214 72.9201C555.342 74.6798 551.674 75.8863 547.755 76.511Z" fill="#2F2E41"/>
<path d="M374.364 167.771H355.969C354.958 167.771 353.98 167.596 353.216 167.279C352.453 166.962 351.954 166.523 351.812 166.045C350.676 162.051 350.676 158.002 351.812 154.008C351.952 153.535 352.441 153.101 353.19 152.785C353.939 152.469 354.899 152.29 355.899 152.282C361.686 151.042 367.919 151.042 374.427 152.282C375.033 152.286 375.63 152.353 376.176 152.479C376.722 152.604 377.204 152.786 377.587 153.01C377.987 153.243 378.274 153.516 378.425 153.809C378.577 154.102 378.59 154.407 378.464 154.703C376.987 158.217 376.987 161.836 378.464 165.35C378.59 165.645 378.577 165.951 378.425 166.243C378.274 166.536 377.987 166.809 377.587 167.042C377.197 167.271 376.705 167.454 376.147 167.58C375.59 167.706 374.981 167.772 374.364 167.771Z" fill="#8982FF"/>
<path d="M372.437 156.871H356.955C356.698 156.871 356.452 156.822 356.271 156.736C356.089 156.649 355.987 156.531 355.987 156.409C355.987 156.286 356.089 156.168 356.271 156.082C356.452 155.995 356.698 155.946 356.955 155.946H372.437C372.694 155.946 372.94 155.995 373.121 156.082C373.303 156.168 373.405 156.286 373.405 156.409C373.405 156.531 373.303 156.649 373.121 156.736C372.94 156.822 372.694 156.871 372.437 156.871Z" fill="white"/>
<path d="M372.437 160.57H356.955C356.698 160.57 356.452 160.522 356.271 160.435C356.089 160.348 355.987 160.231 355.987 160.108C355.987 159.985 356.089 159.868 356.271 159.781C356.452 159.694 356.698 159.646 356.955 159.646H372.437C372.694 159.646 372.94 159.694 373.121 159.781C373.303 159.868 373.405 159.985 373.405 160.108C373.405 160.231 373.303 160.348 373.121 160.435C372.94 160.522 372.694 160.57 372.437 160.57Z" fill="white"/>
<path d="M372.437 164.27H356.955C356.698 164.27 356.452 164.221 356.271 164.134C356.089 164.047 355.987 163.93 355.987 163.807C355.987 163.684 356.089 163.567 356.271 163.48C356.452 163.393 356.698 163.345 356.955 163.345H372.437C372.694 163.345 372.94 163.393 373.121 163.48C373.303 163.567 373.405 163.684 373.405 163.807C373.405 163.93 373.303 164.047 373.121 164.134C372.94 164.221 372.694 164.27 372.437 164.27Z" fill="white"/>
<path d="M154.56 69.7912V69.7904C154.579 69.7154 154.659 69.647 154.783 69.5998C154.906 69.5526 155.064 69.5304 155.221 69.5378L254.745 69.6645C254.902 69.6575 255.058 69.6801 255.181 69.7274C255.304 69.7748 255.383 69.8431 255.402 69.9179V69.9188C255.382 69.9938 255.302 70.0622 255.179 70.1094C255.055 70.1565 254.898 70.1788 254.74 70.1714L155.216 70.0446C155.059 70.0516 154.903 70.0291 154.78 69.9817C154.658 69.9344 154.578 69.8661 154.56 69.7912Z" fill="#3F3D56"/>
<path d="M180.877 99.0828L176.652 101.304C176.456 101.383 176.217 101.433 175.963 101.449C175.709 101.464 175.451 101.445 175.219 101.393C174.518 101.274 173.895 101.07 173.411 100.8C170.391 99.1622 167 97.6891 163.301 96.408C162.694 96.2032 162.209 95.9259 161.895 95.6038C161.768 95.5001 161.704 95.3816 161.709 95.2614C161.715 95.1413 161.79 95.0242 161.927 94.9234C161.969 93.7082 163.402 92.9553 166.185 92.6852C166.673 92.4424 167.776 92.5347 168.764 92.903C172.83 94.4187 176.65 96.0786 180.193 97.8686C181.063 98.3084 181.358 98.8304 180.877 99.0828Z" fill="#8982FF"/>
<path d="M170.016 94.3018L166.46 96.1712C166.337 96.2358 166.041 96.2027 165.798 96.0973C165.556 95.992 165.459 95.8543 165.582 95.7897L169.138 93.9203C169.261 93.8557 169.557 93.8888 169.8 93.9942C170.042 94.0996 170.139 94.2372 170.016 94.3018Z" fill="white"/>
<path d="M173.529 95.8277L169.972 97.6972C169.85 97.7617 169.553 97.7287 169.311 97.6233C169.068 97.5179 168.971 97.3802 169.094 97.3157L172.651 95.4462C172.774 95.3817 173.07 95.4148 173.312 95.5201C173.555 95.6255 173.652 95.7632 173.529 95.8277Z" fill="white"/>
<path d="M177.041 97.3537L173.484 99.2232C173.361 99.2877 173.065 99.2546 172.823 99.1493C172.58 99.0439 172.483 98.9062 172.606 98.8417L176.163 96.9722C176.286 96.9077 176.582 96.9408 176.824 97.0461C177.067 97.1515 177.164 97.2892 177.041 97.3537Z" fill="white"/>
<path d="M557.783 198.254C557.783 198.302 557.763 198.35 557.726 198.394C557.688 198.439 557.63 198.479 557.558 198.514C557.488 198.548 557.403 198.575 557.309 198.593C557.216 198.611 557.116 198.621 557.016 198.621H0.767649C0.564056 198.621 0.3688 198.582 0.224838 198.513C0.0808758 198.444 0 198.351 0 198.254C0 198.157 0.0808758 198.063 0.224838 197.994C0.3688 197.926 0.564056 197.887 0.767649 197.887H557.016C557.116 197.887 557.216 197.896 557.309 197.915C557.403 197.933 557.488 197.96 557.558 197.994C557.63 198.028 557.688 198.069 557.726 198.113C557.763 198.158 557.783 198.206 557.783 198.254Z" fill="#CCCCCC"/>
<path d="M379.752 156.535C380.642 156.283 381.406 155.942 381.99 155.534C382.574 155.127 382.964 154.663 383.132 154.175C383.301 153.688 383.243 153.189 382.964 152.713C382.685 152.238 382.191 151.797 381.517 151.422L394.149 141.041L381.111 141.392L371.115 151.196C369.873 151.779 369.121 152.559 369.003 153.389C368.884 154.219 369.407 155.041 370.471 155.699C371.536 156.357 373.069 156.805 374.779 156.959C376.49 157.114 378.259 156.962 379.752 156.535Z" fill="#A0616A"/>
<path d="M384.848 148.902L373.176 144.558L394.386 124.915L386.439 99.9017C386.046 98.6652 386.227 97.4027 386.971 96.2036C387.714 95.0044 389 93.8982 390.739 92.9634C392.477 92.0286 394.625 91.2882 397.029 90.7946C399.434 90.3011 402.036 90.0666 404.652 90.1077C409.376 90.1845 413.843 91.1538 417.074 92.8028C420.304 94.4517 422.034 96.6457 421.884 98.9034L419.92 127.385L384.848 148.902Z" fill="#E6E6E6"/>
<path d="M283.621 87.0101H244.206C243.15 87.0095 242.137 86.8087 241.39 86.4517C240.643 86.0949 240.223 85.6109 240.222 85.1061V60.1662C240.223 59.6614 240.643 59.1775 241.39 58.8205C242.137 58.4636 243.15 58.2628 244.206 58.2623H283.621C284.677 58.2628 285.69 58.4636 286.437 58.8205C287.184 59.1775 287.604 59.6614 287.605 60.1662V85.1061C287.604 85.6109 287.184 86.0949 286.437 86.4518C285.69 86.8087 284.677 87.0095 283.621 87.0101Z" fill="#E6E6E6"/>
<path d="M280.85 85.4232H246.976C246.038 85.4227 245.139 85.2445 244.476 84.9275C243.813 84.6107 243.44 84.181 243.438 83.7328V61.5396C243.44 61.0914 243.813 60.6617 244.476 60.3448C245.139 60.0279 246.038 59.8496 246.976 59.8491H280.85C281.788 59.8496 282.687 60.0279 283.35 60.3448C284.013 60.6617 284.386 61.0914 284.387 61.5396V83.7328C284.386 84.181 284.013 84.6107 283.35 84.9275C282.687 85.2445 281.788 85.4227 280.85 85.4232Z" fill="white"/>
<path d="M277.471 64.0666H250.356C250.239 64.0668 250.124 64.056 250.016 64.0348C249.909 64.0136 249.811 63.9825 249.729 63.9433C249.646 63.904 249.581 63.8574 249.536 63.806C249.492 63.7547 249.469 63.6996 249.469 63.644C249.469 63.5884 249.492 63.5334 249.536 63.4821C249.581 63.4307 249.646 63.3841 249.729 63.3448C249.811 63.3056 249.909 63.2744 250.016 63.2533C250.124 63.2321 250.239 63.2213 250.356 63.2214H277.471C277.587 63.2213 277.703 63.2321 277.81 63.2533C277.918 63.2744 278.016 63.3056 278.098 63.3448C278.18 63.3841 278.246 63.4307 278.29 63.4821C278.335 63.5334 278.358 63.5884 278.358 63.644C278.358 63.6996 278.335 63.7547 278.29 63.806C278.246 63.8574 278.18 63.904 278.098 63.9433C278.016 63.9825 277.918 64.0136 277.81 64.0348C277.703 64.056 277.587 64.0668 277.471 64.0666Z" fill="#8982FF"/>
<path d="M277.472 65.7365H250.356C250.122 65.7365 249.897 65.692 249.731 65.6127C249.565 65.5335 249.472 65.426 249.472 65.3139C249.472 65.2018 249.565 65.0943 249.731 65.0151C249.897 64.9358 250.122 64.8913 250.356 64.8913H277.472C277.588 64.8913 277.703 64.9022 277.81 64.9235C277.917 64.9447 278.015 64.9758 278.097 65.0151C278.179 65.0543 278.244 65.1009 278.289 65.1522C278.333 65.2034 278.356 65.2584 278.356 65.3139C278.356 65.3694 278.333 65.4244 278.289 65.4756C278.244 65.5269 278.179 65.5735 278.097 65.6127C278.015 65.652 277.917 65.6831 277.81 65.7043C277.703 65.7256 277.588 65.7365 277.472 65.7365Z" fill="#8982FF"/>
<path d="M262.11 67.4063H250.356C250.122 67.4063 249.897 67.3618 249.731 67.2826C249.565 67.2033 249.472 67.0958 249.472 66.9837C249.472 66.8716 249.565 66.7641 249.731 66.6849C249.897 66.6056 250.122 66.5611 250.356 66.5611H262.11C262.345 66.5611 262.569 66.6056 262.735 66.6849C262.901 66.7641 262.994 66.8716 262.994 66.9837C262.994 67.0958 262.901 67.2033 262.735 67.2826C262.569 67.3618 262.345 67.4063 262.11 67.4063Z" fill="#8982FF"/>
<path d="M277.471 70.9037H250.356C250.239 70.9038 250.124 70.893 250.016 70.8719C249.909 70.8507 249.811 70.8196 249.729 70.7803C249.646 70.7411 249.581 70.6944 249.536 70.6431C249.492 70.5917 249.469 70.5367 249.469 70.4811C249.469 70.4255 249.492 70.3705 249.536 70.3191C249.581 70.2678 249.646 70.2211 249.729 70.1819C249.811 70.1426 249.909 70.1115 250.016 70.0903C250.124 70.0692 250.239 70.0584 250.356 70.0585H277.471C277.587 70.0584 277.703 70.0692 277.81 70.0903C277.918 70.1115 278.016 70.1426 278.098 70.1819C278.18 70.2211 278.246 70.2678 278.29 70.3191C278.335 70.3705 278.358 70.4255 278.358 70.4811C278.358 70.5367 278.335 70.5917 278.29 70.6431C278.246 70.6944 278.18 70.7411 278.098 70.7803C278.016 70.8196 277.918 70.8507 277.81 70.8719C277.703 70.893 277.587 70.9038 277.471 70.9037Z" fill="#E4E4E4"/>
<path d="M277.471 72.5737H250.356C250.239 72.5738 250.124 72.563 250.016 72.5418C249.909 72.5207 249.811 72.4895 249.729 72.4503C249.646 72.411 249.581 72.3644 249.536 72.313C249.492 72.2617 249.469 72.2066 249.469 72.1511C249.469 72.0955 249.492 72.0404 249.536 71.9891C249.581 71.9377 249.646 71.8911 249.729 71.8518C249.811 71.8126 249.909 71.7814 250.016 71.7603C250.124 71.7391 250.239 71.7283 250.356 71.7284H277.471C277.587 71.7283 277.703 71.7391 277.81 71.7603C277.918 71.7814 278.016 71.8126 278.098 71.8518C278.18 71.8911 278.246 71.9377 278.29 71.9891C278.335 72.0404 278.358 72.0955 278.358 72.1511C278.358 72.2066 278.335 72.2617 278.29 72.313C278.246 72.3644 278.18 72.411 278.098 72.4503C278.016 72.4895 277.918 72.5207 277.81 72.5418C277.703 72.563 277.587 72.5738 277.471 72.5737Z" fill="#E4E4E4"/>
<path d="M262.11 74.2434H250.356C250.122 74.2434 249.897 74.1989 249.731 74.1196C249.565 74.0404 249.472 73.9329 249.472 73.8208C249.472 73.7087 249.565 73.6012 249.731 73.5219C249.897 73.4427 250.122 73.3982 250.356 73.3982H262.11C262.345 73.3982 262.569 73.4427 262.735 73.5219C262.901 73.6012 262.994 73.7087 262.994 73.8208C262.994 73.9329 262.901 74.0404 262.735 74.1196C262.569 74.1989 262.345 74.2434 262.11 74.2434Z" fill="#E4E4E4"/>
<path d="M277.471 77.7408H250.356C250.121 77.7408 249.897 77.6963 249.731 77.6171C249.565 77.5378 249.472 77.4303 249.472 77.3183C249.472 77.2062 249.565 77.0987 249.731 77.0194C249.897 76.9402 250.121 76.8957 250.356 76.8957H277.471C277.706 76.8957 277.931 76.9402 278.097 77.0194C278.263 77.0987 278.356 77.2062 278.356 77.3183C278.356 77.4303 278.263 77.5378 278.097 77.6171C277.931 77.6963 277.706 77.7408 277.471 77.7408Z" fill="#E4E4E4"/>
<path d="M277.472 79.4106H250.356C250.122 79.4106 249.897 79.3661 249.731 79.2868C249.565 79.2076 249.472 79.1001 249.472 78.988C249.472 78.8759 249.565 78.7684 249.731 78.6892C249.897 78.6099 250.122 78.5654 250.356 78.5654H277.472C277.706 78.5654 277.931 78.6099 278.097 78.6892C278.263 78.7684 278.356 78.8759 278.356 78.988C278.356 79.1001 278.263 79.2076 278.097 79.2868C277.931 79.3661 277.706 79.4106 277.472 79.4106Z" fill="#E4E4E4"/>
<path d="M262.11 81.0806H250.356C250.122 81.0806 249.897 81.036 249.731 80.9568C249.565 80.8775 249.472 80.77 249.472 80.658C249.472 80.5459 249.565 80.4384 249.731 80.3591C249.897 80.2799 250.122 80.2353 250.356 80.2353H262.11C262.345 80.2353 262.569 80.2799 262.735 80.3591C262.901 80.4384 262.994 80.5459 262.994 80.658C262.994 80.77 262.901 80.8775 262.735 80.9568C262.569 81.036 262.345 81.0806 262.11 81.0806Z" fill="#E4E4E4"/>
<path d="M149.495 53.7798L255.234 10.56H255.401V11.1944H255.724L150.359 54.262L149.495 53.7798Z" fill="#2F2E41"/>
<path d="M222.5 103.414H173.882C173.122 103.415 172.394 103.559 171.857 103.816C171.32 104.072 171.017 104.42 171.017 104.783V119.248C171.017 119.611 171.32 119.959 171.857 120.216C172.394 120.472 173.122 120.617 173.882 120.617H222.5C223.26 120.617 223.988 120.473 224.525 120.216C225.062 119.959 225.364 119.611 225.365 119.248V104.783C225.364 104.42 225.062 104.072 224.525 103.816C223.988 103.559 223.26 103.415 222.5 103.414Z" fill="white"/>
<path d="M222.5 103.414H173.882C173.122 103.415 172.394 103.559 171.857 103.816C171.32 104.072 171.017 104.42 171.017 104.783V119.248C171.017 119.611 171.32 119.959 171.857 120.216C172.394 120.472 173.122 120.617 173.882 120.617H222.5C223.26 120.617 223.988 120.473 224.525 120.216C225.062 119.959 225.364 119.611 225.365 119.248V104.783C225.364 104.42 225.062 104.072 224.525 103.816C223.988 103.559 223.26 103.415 222.5 103.414ZM223.44 113.805C223.429 115.277 222.21 116.689 220.045 117.737C217.88 118.785 214.942 119.386 211.861 119.411C206.928 119.441 214.59 119.453 208.641 119.453C195.035 119.453 180.849 119.391 175.555 119.351C174.859 119.344 174.196 119.207 173.707 118.97C173.219 118.733 172.944 118.414 172.941 118.081V104.784C172.942 104.665 173.041 104.551 173.217 104.466C173.393 104.382 173.632 104.334 173.881 104.334H222.498C222.748 104.334 222.987 104.381 223.163 104.466C223.34 104.55 223.439 104.664 223.44 104.783V113.805Z" fill="#CACACA"/>
<path d="M216.085 112.646H179.043C178.715 112.646 178.396 112.597 178.128 112.507C177.86 112.417 177.657 112.289 177.547 112.142L171.826 104.472C171.74 104.357 171.714 104.235 171.748 104.114C171.782 103.994 171.877 103.879 172.023 103.78C172.17 103.68 172.364 103.599 172.589 103.543C172.815 103.487 173.066 103.458 173.32 103.458L223 103.416H223.002C223.265 103.416 223.524 103.447 223.755 103.506C223.987 103.566 224.184 103.652 224.328 103.757C224.473 103.862 224.561 103.982 224.584 104.107C224.608 104.232 224.566 104.358 224.462 104.474L224.376 104.456L224.462 104.474L217.546 112.186C217.423 112.323 217.22 112.439 216.96 112.521C216.7 112.603 216.396 112.646 216.085 112.646Z" fill="#CACACA"/>
<path d="M198.162 114.538C200.348 114.538 202.12 113.691 202.12 112.646C202.12 111.602 200.348 110.755 198.162 110.755C195.976 110.755 194.204 111.602 194.204 112.646C194.204 113.691 195.976 114.538 198.162 114.538Z" fill="#3F3D56"/>
<path d="M91.6865 188.785C90.9124 191.51 87.0354 193.97 82.049 195.576C80.8609 195.96 79.6071 196.295 78.3011 196.578C76.865 196.888 75.3839 197.147 73.8693 197.355C67.2249 198.283 60.0452 198.323 53.059 198.341C45.9953 198.363 38.9339 198.384 31.8744 198.406C26.3075 198.421 20.5598 198.421 15.4185 197.401C15.3416 197.388 15.2662 197.372 15.1927 197.355C10.1417 196.313 5.83897 194.022 5.96154 191.402C6.01081 190.479 6.55737 189.578 7.54844 188.785C8.20446 188.252 8.99289 187.76 9.89654 187.318C12.6962 185.93 16.5796 184.842 20.2179 183.967C26.2171 182.527 32.9969 180.659 34.7516 177.7C34.9368 177.388 35.0619 177.07 35.1257 176.747C35.5386 174.713 33.4679 172.841 30.8295 171.168C30.5714 171.001 30.3005 170.835 30.0232 170.668C29.4297 170.314 28.8167 169.965 28.2104 169.633C27.9524 169.491 27.6944 169.346 27.4299 169.201C24.9915 167.851 22.5337 166.408 21.25 164.796C20.6974 164.121 20.3897 163.406 20.3404 162.681C20.1985 160.064 26.3203 157.428 30.9521 158.664C33.2226 158.56 35.4934 158.452 37.7642 158.341C40.5509 158.208 43.3247 158.076 46.105 157.94H46.1114C46.7371 157.915 47.3501 157.884 47.9629 157.854C53.7493 157.579 59.5313 157.303 65.3091 157.024C67.8765 156.904 70.8955 156.858 72.5663 157.801C74.3855 158.831 73.4436 160.458 71.6438 161.497C69.8441 162.533 67.3476 163.267 65.6575 164.34C63.4706 165.727 62.9611 167.481 63.5868 169.201C63.7681 169.7 64.04 170.191 64.3995 170.668C65.031 171.52 65.906 172.326 66.9992 173.063C70.7923 175.604 76.411 177.355 81.3974 179.367C86.3903 181.384 91.0608 183.942 91.7447 187.043C91.764 187.133 91.7833 187.225 91.7897 187.318C91.8622 187.807 91.8275 188.299 91.6865 188.785Z" fill="#E6E6E6"/>
<path d="M51.1184 160.558C46.0849 158.182 41.7974 155.47 38.3893 152.507C34.9914 149.559 32.4817 146.397 30.9345 143.113C29.366 139.781 28.8465 136.356 29.3931 132.951C30.5268 126.015 35.8897 119.39 44.8187 113.896C45.3639 113.562 45.9222 113.233 46.4935 112.908C47.1305 112.546 48.2128 113.068 47.5803 113.428C38.4687 118.649 32.7603 125.032 31.1614 131.787C30.005 136.949 31.2963 142.169 34.9393 147.06C38.5823 151.951 44.4836 156.387 52.2051 160.039C52.9105 160.372 51.8236 160.891 51.1184 160.559V160.558Z" fill="#E6E6E6"/>
<path d="M44.1992 114.519C44.8214 114.408 45.4308 114.281 46.0246 114.139C46.0546 114.161 46.0839 114.183 46.1139 114.206L44.1992 114.519Z" fill="#E6E6E6"/>
<path d="M56.065 108.041C55.8134 108.714 55.3593 109.366 54.7168 109.977C52.9425 111.68 50.1164 113.081 46.621 113.99C46.4274 114.04 46.2275 114.092 46.0275 114.138C45.7888 113.96 45.5437 113.781 45.3115 113.602C43.665 112.431 42.4477 111.134 41.7119 109.767C40.9636 108.161 41.37 106.358 43.5246 105.072C45.6727 103.787 49.7754 103.21 52.7493 104.043C53.6079 104.288 54.3364 104.624 54.878 105.026C54.5813 105.202 54.2845 105.374 53.9878 105.55C53.9617 105.566 53.9337 105.582 53.9039 105.596C53.6459 105.751 53.3814 105.902 53.1234 106.056C52.0461 106.688 50.9753 107.323 49.898 107.952C51.4164 108.085 52.9616 108.136 54.5039 108.103C54.6264 108.1 54.7555 108.096 54.878 108.093C55.2715 108.081 55.6715 108.066 56.065 108.041Z" fill="#E6E6E6"/>
<path d="M34.3063 120.683L33.8934 123.254L33.7838 123.95C33.6677 123.923 33.5451 123.895 33.429 123.867C29.4165 122.915 25.8753 121.566 23.0419 119.907C20.2085 118.249 18.1483 116.321 16.9987 114.253C16.6144 113.535 16.3449 112.804 16.1924 112.067C18.2825 111.913 20.379 111.756 22.469 111.601C20.7769 110.549 18.6573 109.672 16.2375 109.021C16.7893 106.448 18.7347 103.989 21.882 101.885C22.4239 106.194 31.8679 108.935 35.3255 112.921C36.3863 114.168 36.8455 115.514 36.669 116.857C36.4925 118.201 35.685 119.509 34.3063 120.683Z" fill="#E6E6E6"/>
<path d="M32.5145 143.263C32.0113 143.276 31.5081 143.282 31.0114 143.279C26.7185 143.266 22.4764 142.834 18.5452 142.01C14.614 141.185 11.0765 139.986 8.14972 138.485C5.78045 137.245 3.87544 135.82 2.51814 134.271C2.5633 134.268 2.602 134.265 2.64716 134.262C4.73722 134.108 6.83375 133.951 8.92382 133.797C6.70402 132.414 3.75375 131.34 0.376474 130.683C-0.0802787 129.29 -0.115042 127.873 0.273259 126.475C4.99525 130.153 16.0326 130.449 23.0061 133.186C26.3316 134.511 28.5988 136.343 29.4246 138.374C29.6303 138.876 29.7405 139.386 29.7534 139.897C29.76 140.02 29.76 140.141 29.7534 140.261L29.9084 140.427L32.5145 143.263Z" fill="#E6E6E6"/>
<path d="M53.2586 147.521C51.9233 148.303 50.5879 149.093 49.2526 149.876C50.8943 150.02 52.5668 150.067 54.2327 150.017C52.7533 152.549 49.9134 154.852 45.995 156.698C45.6273 156.87 45.2467 157.04 44.8596 157.2C44.7822 157.234 44.6983 157.268 44.6209 157.302L44.2726 156.83L44.2661 156.827L42.2922 154.216C39.7878 153.013 38.0535 151.493 37.2928 149.836V149.829C36.8301 148.859 36.7232 147.858 36.9767 146.87C38.0798 142.588 45.6531 138.738 43.7694 134.518C47.9198 136.124 51.1401 138.212 53.1231 140.581C52.0458 141.213 50.975 141.848 49.8977 142.477C51.4161 142.611 52.9613 142.661 54.5036 142.628C55.0438 143.672 55.3381 144.741 55.3809 145.816C55.3874 145.97 55.3874 146.121 55.3809 146.275C54.7036 146.676 54.0198 147.074 53.3424 147.474C53.3164 147.49 53.2884 147.506 53.2586 147.521Z" fill="#E6E6E6"/>
<path d="M289.425 21.0412H250.011C248.954 21.0406 247.942 20.8399 247.195 20.4829C246.448 20.126 246.028 19.6421 246.026 19.1372V1.90395C246.028 1.39916 246.448 0.91522 247.195 0.558285C247.942 0.201349 248.954 0.000572763 250.011 0H289.425C290.482 0.000570317 291.494 0.201348 292.241 0.558285C292.988 0.91522 293.408 1.39916 293.41 1.90395V19.1372C293.408 19.6421 292.988 20.126 292.241 20.4829C291.494 20.8399 290.482 21.0406 289.425 21.0412Z" fill="#E6E6E6"/>
<path d="M286.656 19.4544H252.783C251.845 19.4538 250.946 19.2756 250.282 18.9587C249.619 18.6417 249.246 18.212 249.245 17.7638V3.27732C249.246 2.82913 249.619 2.39944 250.282 2.08252C250.946 1.7656 251.845 1.58733 252.783 1.58683H286.656C287.594 1.58733 288.494 1.7656 289.157 2.08252C289.82 2.39944 290.193 2.82913 290.194 3.27732V17.7638C290.193 18.212 289.82 18.6417 289.157 18.9587C288.494 19.2756 287.594 19.4538 286.656 19.4544Z" fill="white"/>
<path d="M283.278 5.80447H256.162C256.046 5.80462 255.931 5.7938 255.823 5.77263C255.715 5.75146 255.618 5.72036 255.535 5.6811C255.453 5.64185 255.388 5.59521 255.343 5.54386C255.298 5.49252 255.275 5.43747 255.275 5.38188C255.275 5.32629 255.298 5.27124 255.343 5.21989C255.388 5.16855 255.453 5.12191 255.535 5.08266C255.618 5.0434 255.715 5.0123 255.823 4.99113C255.931 4.96996 256.046 4.95914 256.162 4.95929H283.278C283.394 4.95914 283.509 4.96996 283.617 4.99113C283.724 5.0123 283.822 5.0434 283.904 5.08266C283.987 5.12191 284.052 5.16855 284.097 5.21989C284.141 5.27124 284.164 5.32629 284.164 5.38188C284.164 5.43747 284.141 5.49252 284.097 5.54386C284.052 5.59521 283.987 5.64185 283.904 5.6811C283.822 5.72036 283.724 5.75146 283.617 5.77263C283.509 5.7938 283.394 5.80462 283.278 5.80447Z" fill="#8982FF"/>
<path d="M283.277 7.47423H256.162C255.927 7.47423 255.702 7.4297 255.536 7.35045C255.371 7.27119 255.277 7.1637 255.277 7.05162C255.277 6.93953 255.371 6.83204 255.536 6.75278C255.702 6.67353 255.927 6.629 256.162 6.629H283.277C283.512 6.629 283.737 6.67353 283.903 6.75278C284.068 6.83204 284.162 6.93953 284.162 7.05162C284.162 7.1637 284.068 7.27119 283.903 7.35045C283.737 7.4297 283.512 7.47423 283.277 7.47423Z" fill="#8982FF"/>
<path d="M267.916 9.14419H256.162C255.927 9.14419 255.702 9.09966 255.536 9.02041C255.371 8.94115 255.277 8.83366 255.277 8.72157C255.277 8.60949 255.371 8.502 255.536 8.42274C255.702 8.34349 255.927 8.29896 256.162 8.29896H267.916C268.15 8.29896 268.375 8.34349 268.541 8.42274C268.707 8.502 268.8 8.60949 268.8 8.72157C268.8 8.83366 268.707 8.94115 268.541 9.02041C268.375 9.09966 268.15 9.14419 267.916 9.14419Z" fill="#8982FF"/>
<path d="M283.278 12.6415H256.162C256.046 12.6417 255.931 12.6309 255.823 12.6097C255.715 12.5885 255.618 12.5574 255.535 12.5182C255.453 12.4789 255.388 12.4323 255.343 12.3809C255.298 12.3296 255.275 12.2745 255.275 12.2189C255.275 12.1633 255.298 12.1083 255.343 12.0569C255.388 12.0056 255.453 11.959 255.535 11.9197C255.618 11.8805 255.715 11.8494 255.823 11.8282C255.931 11.807 256.046 11.7962 256.162 11.7963H283.278C283.394 11.7962 283.509 11.807 283.617 11.8282C283.724 11.8494 283.822 11.8805 283.904 11.9197C283.987 11.959 284.052 12.0056 284.097 12.0569C284.141 12.1083 284.164 12.1633 284.164 12.2189C284.164 12.2745 284.141 12.3296 284.097 12.3809C284.052 12.4323 283.987 12.4789 283.904 12.5182C283.822 12.5574 283.724 12.5885 283.617 12.6097C283.509 12.6309 283.394 12.6417 283.278 12.6415Z" fill="#E4E4E4"/>
<path d="M283.278 14.3114H256.162C256.046 14.3115 255.931 14.3007 255.823 14.2796C255.715 14.2584 255.618 14.2273 255.535 14.188C255.453 14.1488 255.388 14.1021 255.343 14.0508C255.298 13.9994 255.275 13.9444 255.275 13.8888C255.275 13.8332 255.298 13.7781 255.343 13.7268C255.388 13.6754 255.453 13.6288 255.535 13.5895C255.618 13.5503 255.715 13.5192 255.823 13.498C255.931 13.4768 256.046 13.466 256.162 13.4662H283.278C283.394 13.466 283.509 13.4768 283.617 13.498C283.724 13.5192 283.822 13.5503 283.905 13.5895C283.987 13.6288 284.052 13.6754 284.097 13.7268C284.141 13.7781 284.164 13.8332 284.164 13.8888C284.164 13.9444 284.141 13.9994 284.097 14.0508C284.052 14.1021 283.987 14.1488 283.905 14.188C283.822 14.2273 283.724 14.2584 283.617 14.2796C283.509 14.3007 283.394 14.3115 283.278 14.3114Z" fill="#E4E4E4"/>
<path d="M267.916 15.9812H256.162C255.927 15.9812 255.702 15.9367 255.536 15.8575C255.371 15.7782 255.277 15.6707 255.277 15.5586C255.277 15.4465 255.371 15.339 255.536 15.2598C255.702 15.1805 255.927 15.136 256.162 15.136H267.916C268.15 15.136 268.375 15.1805 268.541 15.2598C268.707 15.339 268.8 15.4465 268.8 15.5586C268.8 15.6707 268.707 15.7782 268.541 15.8575C268.375 15.9367 268.15 15.9812 267.916 15.9812Z" fill="#E4E4E4"/>
</svg>
