<svg width="35" height="35" viewBox="0 0 35 35" fill="none" xmlns="http://www.w3.org/2000/svg">
<circle cx="17.5" cy="17.5" r="17" stroke="#CCCCCC"/>
<path d="M23.8 19.6933L24.5472 19.7582C24.5491 19.7366 24.55 19.715 24.55 19.6933H23.8ZM12.75 19.6933H12C12 19.715 12.0009 19.7366 12.0028 19.7582L12.75 19.6933ZM20.3851 24.5091C20.6623 24.2013 20.6375 23.7271 20.3297 23.4499C20.0219 23.1727 19.5477 23.1975 19.2705 23.5053L20.3851 24.5091ZM17.2206 23.5059C16.9437 23.1978 16.4695 23.1724 16.1614 23.4493C15.8533 23.7261 15.828 24.2003 16.1048 24.5084L17.2206 23.5059ZM18.275 22.801C20.1051 22.801 21.5756 22.6889 22.6242 22.2783C23.1665 22.0659 23.6337 21.76 23.9764 21.3167C24.3212 20.8707 24.4965 20.3419 24.5472 19.7582L23.0528 19.6285C23.0216 19.9885 22.9235 20.2262 22.7897 20.3992C22.6539 20.575 22.4374 20.7405 22.0772 20.8816C21.3205 21.1779 20.1104 21.301 18.275 21.301V22.801ZM24.55 19.6933C24.55 19.137 24.4617 18.6995 24.3159 18.318C24.1765 17.9532 23.988 17.6561 23.8527 17.4297C23.7119 17.1939 23.6001 16.9924 23.5162 16.7324C23.4328 16.4738 23.3677 16.1266 23.3677 15.6143H21.8678C21.8678 16.2591 21.9505 16.7645 22.0887 17.193C22.2265 17.6201 22.4103 17.94 22.565 18.199C22.7253 18.4673 22.8324 18.6381 22.9147 18.8534C22.9906 19.052 23.05 19.3066 23.05 19.6933H24.55ZM23.3677 15.6143C23.3677 13.3766 21.3026 11 18.275 11V12.5C20.5062 12.5 21.8678 14.2368 21.8678 15.6143H23.3677ZM18.275 11C15.2474 11 13.1823 13.3766 13.1823 15.6143H14.6823C14.6823 14.2368 16.0438 12.5 18.275 12.5V11ZM13.1823 15.6143C13.1823 16.1266 13.1172 16.4738 13.0338 16.7324C12.9499 16.9924 12.8381 17.1939 12.6973 17.4297C12.562 17.6561 12.3735 17.9532 12.2341 18.318C12.0883 18.6995 12 19.137 12 19.6933H13.5C13.5 19.3066 13.5594 19.052 13.6353 18.8534C13.7176 18.6381 13.8247 18.4673 13.985 18.199C14.1397 17.94 14.3235 17.6201 14.4613 17.193C14.5995 16.7645 14.6823 16.2591 14.6823 15.6143H13.1823ZM12.0028 19.7582C12.0536 20.3432 12.2288 20.873 12.5738 21.3195C12.9167 21.7634 13.3843 22.0692 13.9269 22.2812C14.9755 22.6908 16.446 22.801 18.275 22.801V21.301C16.4391 21.301 15.2294 21.1796 14.4727 20.884C14.1128 20.7434 13.8965 20.5782 13.7608 20.4024C13.627 20.2293 13.5286 19.9907 13.4972 19.6285L12.0028 19.7582ZM19.2705 23.5053C18.6788 24.1623 17.8148 24.1673 17.2206 23.5059L16.1048 24.5084C17.3009 25.8395 19.2034 25.8212 20.3851 24.5091L19.2705 23.5053Z" fill="black"/>
</svg>
