<svg width="35" height="35" viewBox="0 0 35 35" fill="none" xmlns="http://www.w3.org/2000/svg">
<circle cx="17.5" cy="17.5" r="17" stroke="#CCCCCC"/>
<path d="M23.2197 24.2806C23.5126 24.5735 23.9875 24.5735 24.2804 24.2806C24.5733 23.9877 24.5733 23.5128 24.2804 23.2199L23.2197 24.2806ZM22.0804 21.0198C21.7876 20.7269 21.3127 20.7269 21.0198 21.0197C20.7269 21.3126 20.7269 21.7875 21.0197 22.0804L22.0804 21.0198ZM21.9329 17.7165C21.9329 20.0451 20.0451 21.9329 17.7165 21.9329V23.4329C20.8736 23.4329 23.4329 20.8736 23.4329 17.7165H21.9329ZM17.7165 21.9329C15.3878 21.9329 13.5 20.0451 13.5 17.7165H12C12 20.8736 14.5593 23.4329 17.7165 23.4329V21.9329ZM13.5 17.7165C13.5 15.3878 15.3878 13.5 17.7165 13.5V12C14.5593 12 12 14.5593 12 17.7165H13.5ZM17.7165 13.5C20.0451 13.5 21.9329 15.3878 21.9329 17.7165H23.4329C23.4329 14.5593 20.8736 12 17.7165 12V13.5ZM24.2804 23.2199L22.0804 21.0198L21.0197 22.0804L23.2197 24.2806L24.2804 23.2199Z" fill="black"/>
</svg>
