<svg width="34" height="34" viewBox="0 0 34 34" fill="none" xmlns="http://www.w3.org/2000/svg">
<circle cx="17" cy="17" r="16.5" stroke="#CCCCCC"/>
<path d="M22.9252 17.9675C22.8049 17.8382 22.7386 17.6721 22.7386 17.5C22.7386 17.3279 22.8049 17.1618 22.9252 17.0325L23.8852 16.0125C23.991 15.9011 24.0567 15.7608 24.0728 15.6119C24.089 15.4631 24.0548 15.3132 23.9752 15.1838L22.4752 12.7329C22.3964 12.6037 22.2763 12.5012 22.1323 12.4402C21.9882 12.3791 21.8273 12.3626 21.6727 12.3929L20.2627 12.6621C20.0833 12.6971 19.8965 12.6689 19.7376 12.5828C19.5787 12.4966 19.4587 12.3586 19.4002 12.1946L18.9427 10.8983C18.8923 10.7576 18.7965 10.6354 18.6686 10.549C18.5408 10.4626 18.3874 10.4163 18.2302 10.4167H15.2302C15.0666 10.4086 14.9048 10.4513 14.7693 10.5383C14.6339 10.6253 14.5323 10.7517 14.4802 10.8983L14.0602 12.1946C14.0017 12.3586 13.8816 12.4966 13.7227 12.5828C13.5639 12.6689 13.3771 12.6971 13.1977 12.6621L11.7502 12.3929C11.6036 12.3734 11.4541 12.3952 11.3207 12.4557C11.1872 12.5162 11.0757 12.6127 11.0002 12.7329L9.50017 15.1838C9.41854 15.3117 9.38183 15.4608 9.3953 15.6096C9.40877 15.7585 9.47173 15.8995 9.57517 16.0125L10.5277 17.0325C10.6479 17.1618 10.7142 17.3279 10.7142 17.5C10.7142 17.6721 10.6479 17.8382 10.5277 17.9675L9.57517 18.9875C9.47173 19.1005 9.40877 19.2415 9.3953 19.3904C9.38183 19.5392 9.41854 19.6883 9.50017 19.8163L11.0002 22.2671C11.079 22.3963 11.199 22.4988 11.3431 22.5598C11.4872 22.6209 11.648 22.6374 11.8027 22.6071L13.2127 22.3379C13.3921 22.3029 13.5789 22.3311 13.7377 22.4172C13.8966 22.5034 14.0167 22.6414 14.0752 22.8054L14.5327 24.1017C14.5848 24.2483 14.6864 24.3747 14.8218 24.4617C14.9573 24.5487 15.1191 24.5914 15.2827 24.5833H18.2827C18.4399 24.5837 18.5933 24.5374 18.7211 24.451C18.849 24.3646 18.9448 24.2424 18.9952 24.1017L19.4527 22.8054C19.5112 22.6414 19.6312 22.5034 19.7901 22.4172C19.949 22.3311 20.1358 22.3029 20.3152 22.3379L21.7252 22.6071C21.8798 22.6374 22.0407 22.6209 22.1848 22.5598C22.3288 22.4988 22.4489 22.3963 22.5277 22.2671L24.0277 19.8163C24.1073 19.6868 24.1415 19.5369 24.1253 19.3881C24.1092 19.2392 24.0435 19.0989 23.9377 18.9875L22.9252 17.9675ZM21.8077 18.9167L22.4077 19.5542L21.4477 21.1267L20.5627 20.9567C20.0225 20.8524 19.4606 20.939 18.9836 21.2002C18.5066 21.4613 18.1478 21.8788 17.9752 22.3733L17.6902 23.1667H15.7702L15.5002 22.3592C15.3276 21.8646 14.9687 21.4472 14.4917 21.186C14.0147 20.9249 13.4528 20.8382 12.9127 20.9425L12.0277 21.1125L11.0527 19.5471L11.6527 18.9096C12.0216 18.52 12.2256 18.0156 12.2256 17.4929C12.2256 16.9702 12.0216 16.4659 11.6527 16.0763L11.0527 15.4388L12.0127 13.8804L12.8977 14.0504C13.4378 14.1547 13.9997 14.068 14.4767 13.8069C14.9537 13.5457 15.3126 13.1283 15.4852 12.6338L15.7702 11.8333H17.6902L17.9752 12.6408C18.1478 13.1354 18.5066 13.5528 18.9836 13.814C19.4606 14.0751 20.0225 14.1618 20.5627 14.0575L21.4477 13.8875L22.4077 15.46L21.8077 16.0975C21.4429 16.4862 21.2414 16.9877 21.2414 17.5071C21.2414 18.0265 21.4429 18.528 21.8077 18.9167ZM16.7302 14.6667C16.1368 14.6667 15.5568 14.8328 15.0635 15.1442C14.5701 15.4555 14.1856 15.898 13.9585 16.4157C13.7315 16.9335 13.6721 17.5031 13.7878 18.0528C13.9036 18.6024 14.1893 19.1072 14.6088 19.5035C15.0284 19.8997 15.5629 20.1696 16.1449 20.2789C16.7268 20.3882 17.33 20.3321 17.8782 20.1177C18.4264 19.9032 18.8949 19.5401 19.2246 19.0741C19.5542 18.6082 19.7302 18.0604 19.7302 17.5C19.7302 16.7486 19.4141 16.0279 18.8515 15.4965C18.2889 14.9652 17.5258 14.6667 16.7302 14.6667ZM16.7302 18.9167C16.4335 18.9167 16.1435 18.8336 15.8968 18.6779C15.6501 18.5223 15.4579 18.301 15.3443 18.0421C15.2308 17.7833 15.2011 17.4984 15.259 17.2236C15.3169 16.9488 15.4597 16.6964 15.6695 16.4983C15.8793 16.3001 16.1466 16.1652 16.4375 16.1106C16.7285 16.0559 17.0301 16.0839 17.3042 16.1912C17.5783 16.2984 17.8125 16.48 17.9774 16.7129C18.1422 16.9459 18.2302 17.2198 18.2302 17.5C18.2302 17.8757 18.0721 18.2361 17.7908 18.5017C17.5095 18.7674 17.128 18.9167 16.7302 18.9167Z" fill="black"/>
</svg>
