<svg width="17" height="19" viewBox="0 0 17 19" fill="none" xmlns="http://www.w3.org/2000/svg">
<path d="M0.9795 6.06158C0.565286 6.06158 0.2295 6.39737 0.2295 6.81158C0.2295 7.2258 0.565286 7.56158 0.9795 7.56158V6.06158ZM15.9862 7.56158C16.4004 7.56158 16.7362 7.2258 16.7362 6.81158C16.7362 6.39737 16.4004 6.06158 15.9862 6.06158V7.56158ZM12.1489 9.34242C11.7347 9.34242 11.3989 9.6782 11.3989 10.0924C11.3989 10.5066 11.7347 10.8424 12.1489 10.8424V9.34242ZM12.1564 10.8424C12.5706 10.8424 12.9064 10.5066 12.9064 10.0924C12.9064 9.6782 12.5706 9.34242 12.1564 9.34242V10.8424ZM8.48275 9.34242C8.06854 9.34242 7.73275 9.6782 7.73275 10.0924C7.73275 10.5066 8.06854 10.8424 8.48275 10.8424V9.34242ZM8.49025 10.8424C8.90446 10.8424 9.24025 10.5066 9.24025 10.0924C9.24025 9.6782 8.90446 9.34242 8.49025 9.34242V10.8424ZM4.80967 9.34242C4.39545 9.34242 4.05967 9.6782 4.05967 10.0924C4.05967 10.5066 4.39545 10.8424 4.80967 10.8424V9.34242ZM4.81717 10.8424C5.23138 10.8424 5.56717 10.5066 5.56717 10.0924C5.56717 9.6782 5.23138 9.34242 4.81717 9.34242V10.8424ZM12.1489 12.5524C11.7347 12.5524 11.3989 12.8882 11.3989 13.3024C11.3989 13.7166 11.7347 14.0524 12.1489 14.0524V12.5524ZM12.1564 14.0524C12.5706 14.0524 12.9064 13.7166 12.9064 13.3024C12.9064 12.8882 12.5706 12.5524 12.1564 12.5524V14.0524ZM8.48275 12.5524C8.06854 12.5524 7.73275 12.8882 7.73275 13.3024C7.73275 13.7166 8.06854 14.0524 8.48275 14.0524V12.5524ZM8.49025 14.0524C8.90446 14.0524 9.24025 13.7166 9.24025 13.3024C9.24025 12.8882 8.90446 12.5524 8.49025 12.5524V14.0524ZM4.80967 12.5524C4.39545 12.5524 4.05967 12.8882 4.05967 13.3024C4.05967 13.7166 4.39545 14.0524 4.80967 14.0524V12.5524ZM4.81717 14.0524C5.23138 14.0524 5.56717 13.7166 5.56717 13.3024C5.56717 12.8882 5.23138 12.5524 4.81717 12.5524V14.0524ZM12.5693 0.75C12.5693 0.335786 12.2335 0 11.8193 0C11.4051 0 11.0693 0.335786 11.0693 0.75H12.5693ZM11.0693 3.46833C11.0693 3.88255 11.4051 4.21833 11.8193 4.21833C12.2335 4.21833 12.5693 3.88255 12.5693 3.46833H11.0693ZM5.89575 0.75C5.89575 0.335786 5.55996 0 5.14575 0C4.73154 0 4.39575 0.335786 4.39575 0.75H5.89575ZM4.39575 3.46833C4.39575 3.88255 4.73154 4.21833 5.14575 4.21833C5.55996 4.21833 5.89575 3.88255 5.89575 3.46833H4.39575ZM1.5 9.68792C1.5 6.83115 1.98587 5.16543 2.97104 4.18035C3.95622 3.19526 5.62195 2.70958 8.47833 2.70958V1.20958C5.53888 1.20958 3.34045 1.68974 1.91042 3.11965C0.48038 4.54957 0 6.74802 0 9.68792H1.5ZM8.47833 2.70958C11.3352 2.70958 13.0011 3.19526 13.9864 4.18038C14.9716 5.16545 15.4575 6.83115 15.4575 9.68792H16.9575C16.9575 6.74802 16.4771 4.54955 15.047 3.11962C13.6168 1.68974 11.4182 1.20958 8.47833 1.20958V2.70958ZM15.4575 9.68792C15.4575 12.5447 14.9716 14.2104 13.9864 15.1955C13.0011 16.1806 11.3352 16.6662 8.47833 16.6662V18.1662C11.4182 18.1662 13.6168 17.6861 15.047 16.2562C16.4771 14.8263 16.9575 12.6278 16.9575 9.68792H15.4575ZM8.47833 16.6662C5.62195 16.6662 3.95622 16.1806 2.97104 15.1955C1.98587 14.2104 1.5 12.5447 1.5 9.68792H0C0 12.6278 0.48038 14.8263 1.91042 16.2562C3.34045 17.6861 5.53888 18.1662 8.47833 18.1662V16.6662ZM0.9795 7.56158H15.9862V6.06158H0.9795V7.56158ZM12.1489 10.8424H12.1564V9.34242H12.1489V10.8424ZM8.48275 10.8424H8.49025V9.34242H8.48275V10.8424ZM4.80967 10.8424H4.81717V9.34242H4.80967V10.8424ZM12.1489 14.0524H12.1564V12.5524H12.1489V14.0524ZM8.48275 14.0524H8.49025V12.5524H8.48275V14.0524ZM4.80967 14.0524H4.81717V12.5524H4.80967V14.0524ZM11.0693 0.75V3.46833H12.5693V0.75H11.0693ZM4.39575 0.75V3.46833H5.89575V0.75H4.39575Z" fill="#1AADB6"/>
</svg>
