<svg width="15" height="14" viewBox="0 0 15 14" fill="none" xmlns="http://www.w3.org/2000/svg">
<path d="M5.8253 6.58341C5.62974 6.38844 5.31316 6.38893 5.11819 6.58449C4.92323 6.78005 4.92372 7.09663 5.11928 7.29159L5.8253 6.58341ZM7.10227 8.5625L6.74926 8.91659C6.9444 9.11113 7.26015 9.11113 7.45529 8.91659L7.10227 8.5625ZM11.5303 4.85409C11.7258 4.65913 11.7263 4.34255 11.5314 4.14699C11.3364 3.95143 11.0198 3.95094 10.8242 4.14591L11.5303 4.85409ZM7.9799 14C11.8555 14 14.9999 10.8674 14.9999 7H13.9999C13.9999 10.3123 11.3061 13 7.9799 13V14ZM14.9999 7C14.9999 3.13256 11.8555 0 7.9799 0V1C11.3061 1 13.9999 3.68773 13.9999 7H14.9999ZM7.9799 0C4.10434 0 0.959961 3.13256 0.959961 7H1.95996C1.95996 3.68773 4.65373 1 7.9799 1V0ZM0.959961 7C0.959961 10.8674 4.10434 14 7.9799 14V13C4.65373 13 1.95996 10.3123 1.95996 7H0.959961ZM5.11928 7.29159L6.74926 8.91659L7.45529 8.2084L5.8253 6.58341L5.11928 7.29159ZM7.45529 8.91659L11.5303 4.85409L10.8242 4.14591L6.74926 8.2084L7.45529 8.91659Z" fill="#8982FF"/>
</svg>
