<svg width="21" height="17" viewBox="0 0 21 17" fill="none" xmlns="http://www.w3.org/2000/svg">
<path d="M18.9764 16.2805C19.324 16.5734 19.8875 16.5734 20.235 16.2805C20.5826 15.9877 20.5826 15.5128 20.235 15.2199L18.9764 16.2805ZM16.6754 12.2196C16.328 11.9267 15.7645 11.9267 15.4169 12.2196C15.0694 12.5125 15.0694 12.9873 15.4168 13.2803L16.6754 12.2196ZM16.9892 7.52252C16.9892 10.8487 13.7899 13.545 9.84328 13.545V15.045C14.7729 15.045 18.769 11.6771 18.769 7.52252H16.9892ZM9.84328 13.545C5.89666 13.545 2.6973 10.8487 2.6973 7.52252H0.91748C0.91748 11.6771 4.9137 15.045 9.84328 15.045V13.545ZM2.6973 7.52252C2.6973 4.19637 5.89666 1.5 9.84328 1.5V0C4.9137 0 0.91748 3.36795 0.91748 7.52252H2.6973ZM9.84328 1.5C13.7899 1.5 16.9892 4.19637 16.9892 7.52252H18.769C18.769 3.36795 14.7729 0 9.84328 0V1.5ZM20.235 15.2199L16.6754 12.2196L15.4168 13.2803L18.9764 16.2805L20.235 15.2199Z" fill="#AAAAAA"/>
</svg>
