<svg width="10" height="5" viewBox="0 0 10 5" fill="none" xmlns="http://www.w3.org/2000/svg">
<path d="M9.24935 0.855268C9.44555 0.660958 9.44709 0.344379 9.25278 0.14817C9.05847 -0.048039 8.74189 -0.049579 8.54569 0.144732L9.24935 0.855268ZM4.85843 4.5L4.5066 4.85527C4.70146 5.04824 5.0154 5.04824 5.21026 4.85527L4.85843 4.5ZM1.17117 0.144732C0.974957 -0.049579 0.658378 -0.048039 0.464068 0.14817C0.269757 0.344379 0.271297 0.660958 0.467506 0.855268L1.17117 0.144732ZM8.54569 0.144732L4.5066 4.14473L5.21026 4.85527L9.24935 0.855268L8.54569 0.144732ZM5.21026 4.14473L1.17117 0.144732L0.467506 0.855268L4.5066 4.85527L5.21026 4.14473Z" fill="black"/>
</svg>
