<svg width="15" height="14" viewBox="0 0 15 14" fill="none" xmlns="http://www.w3.org/2000/svg">
<path d="M5.67308 7.45841C5.47752 7.26344 5.16094 7.26393 4.96598 7.45949C4.77101 7.65505 4.7715 7.97163 4.96706 8.16659L5.67308 7.45841ZM6.95006 9.4375L6.59704 9.79159C6.79218 9.98613 7.10793 9.98613 7.30307 9.79159L6.95006 9.4375ZM11.378 5.72909C11.5736 5.53413 11.5741 5.21755 11.3791 5.02199C11.1841 4.82643 10.8676 4.82594 10.672 5.02091L11.378 5.72909ZM13.785 7C13.785 10.3123 11.0912 13 7.76506 13V14C11.6406 14 14.785 10.8674 14.785 7H13.785ZM7.76506 13C4.43889 13 1.74512 10.3123 1.74512 7H0.745117C0.745117 10.8674 3.8895 14 7.76506 14V13ZM1.74512 7C1.74512 3.68773 4.43889 1 7.76506 1V0C3.8895 0 0.745117 3.13256 0.745117 7H1.74512ZM7.76506 1C11.0912 1 13.785 3.68773 13.785 7H14.785C14.785 3.13256 11.6406 0 7.76506 0V1ZM4.96706 8.16659L6.59704 9.79159L7.30307 9.0834L5.67308 7.45841L4.96706 8.16659ZM7.30307 9.79159L11.378 5.72909L10.672 5.02091L6.59704 9.0834L7.30307 9.79159Z" fill="#8982FF"/>
</svg>
