<svg width="10" height="5" viewBox="0 0 10 5" fill="none" xmlns="http://www.w3.org/2000/svg">
<path d="M9.1802 0.856398C9.37703 0.662719 9.37959 0.346147 9.18591 0.149314C8.99223 -0.047519 8.67566 -0.050076 8.47883 0.143602L9.1802 0.856398ZM4.76437 4.5L4.41368 4.8564C4.60827 5.04787 4.92046 5.04787 5.11505 4.8564L4.76437 4.5ZM1.0499 0.143602C0.853072 -0.050076 0.5365 -0.047519 0.342821 0.149314C0.149143 0.346147 0.1517 0.662719 0.348533 0.856398L1.0499 0.143602ZM8.47883 0.143602L4.41368 4.1436L5.11505 4.8564L9.1802 0.856398L8.47883 0.143602ZM5.11505 4.1436L1.0499 0.143602L0.348533 0.856398L4.41368 4.8564L5.11505 4.1436Z" fill="black"/>
</svg>
