<svg width="71" height="18" viewBox="0 0 71 18" fill="none" xmlns="http://www.w3.org/2000/svg">
<path d="M15.4761 2.00209C15.4751 2.50375 14.7067 2.98477 13.3398 3.33931C11.973 3.69387 10.1196 3.89291 8.18754 3.89266C6.25547 3.89241 4.40289 3.69289 3.03738 3.33798C1.67188 2.98307 0.905285 2.50185 0.906251 2.00019C0.907217 1.49854 1.67566 1.01752 3.04253 0.662964C4.40941 0.308413 6.26276 0.109369 8.19483 0.109619C10.1269 0.10987 11.9795 0.309396 13.345 0.664301C14.7105 1.01921 15.4771 1.50043 15.4761 2.00209ZM15.6946 5.29333H1.1248V17.1342H15.6946V5.29333ZM38.7149 5.29333H24.218V17.1342H38.5692V10.9206C38.5692 7.45912 55.944 7.13757 55.944 10.9206V17.1342H70.3315V9.63433C70.3315 3.79903 44.6157 4.01655 38.5692 6.88221L38.7149 5.29333Z" fill="#0274B3"/>
</svg>
