<svg width="18" height="17" viewBox="0 0 18 17" fill="none" xmlns="http://www.w3.org/2000/svg">
<path d="M13.9036 6.36927C14.1687 6.05105 14.1257 5.57813 13.8075 5.31298C13.4892 5.04783 13.0163 5.09086 12.7512 5.40909L13.9036 6.36927ZM4.60851 5.40592C4.34162 5.08916 3.86847 5.04873 3.5517 5.31563C3.23494 5.58252 3.19451 6.05568 3.46141 6.37244L4.60851 5.40592ZM13.3274 5.88918C12.7512 5.40909 12.7512 5.409 12.7513 5.40892C12.7513 5.40891 12.7514 5.40885 12.7514 5.40883C12.7514 5.40879 12.7514 5.4088 12.7513 5.40886C12.7513 5.40897 12.751 5.40928 12.7506 5.40977C12.7498 5.41076 12.7483 5.41251 12.7462 5.41498C12.742 5.41992 12.7354 5.42777 12.7264 5.43834C12.7083 5.45947 12.6808 5.49144 12.6446 5.5327C12.5723 5.61527 12.4655 5.7347 12.3309 5.87866C12.0609 6.16756 11.6833 6.55048 11.2502 6.93107C10.8144 7.31402 10.3386 7.68027 9.87236 7.94712C9.39409 8.22083 8.99503 8.34971 8.69578 8.34971V9.84971C9.37481 9.84971 10.0438 9.57726 10.6174 9.249C11.203 8.91388 11.7628 8.4775 12.2404 8.05781C12.7206 7.63577 13.1341 7.21607 13.4267 6.90299C13.5735 6.74596 13.691 6.61457 13.7725 6.52156C13.8133 6.47503 13.8452 6.43803 13.8673 6.41214C13.8784 6.39919 13.887 6.38901 13.893 6.3818C13.8961 6.3782 13.8985 6.37534 13.9002 6.37324C13.9011 6.37219 13.9018 6.37134 13.9024 6.37067C13.9027 6.37034 13.9029 6.37006 13.9031 6.36983C13.9032 6.36971 13.9033 6.36957 13.9034 6.36951C13.9035 6.36939 13.9036 6.36927 13.3274 5.88918ZM8.69578 8.34971C8.39631 8.34971 7.99523 8.22056 7.51355 7.9463C7.04413 7.67903 6.56441 7.31231 6.1248 6.92909C5.68787 6.54821 5.30645 6.16502 5.03355 5.87596C4.89754 5.7319 4.78958 5.61238 4.71636 5.52974C4.67977 5.48845 4.65192 5.45644 4.63365 5.43527C4.62452 5.42469 4.61779 5.41682 4.61356 5.41186C4.61145 5.40938 4.60996 5.40763 4.60912 5.40663C4.60869 5.40613 4.60843 5.40582 4.60833 5.4057C4.60828 5.40564 4.60827 5.40563 4.6083 5.40567C4.60832 5.40569 4.60837 5.40575 4.60838 5.40576C4.60844 5.40584 4.60851 5.40592 4.03496 5.88918C3.46141 6.37244 3.46151 6.37255 3.46161 6.37268C3.46166 6.37273 3.46177 6.37287 3.46187 6.37299C3.46207 6.37322 3.4623 6.3735 3.46258 6.37383C3.46314 6.37448 3.46386 6.37534 3.46474 6.37638C3.46651 6.37847 3.46894 6.38132 3.472 6.38492C3.47813 6.39211 3.48683 6.40227 3.49799 6.4152C3.5203 6.44106 3.55248 6.47803 3.59368 6.52453C3.67603 6.61746 3.79468 6.74876 3.94284 6.90569C4.23825 7.2186 4.65534 7.63805 5.13915 8.05979C5.62028 8.47921 6.18353 8.91512 6.77136 9.24982C7.34694 9.57754 8.01739 9.84971 8.69578 9.84971V8.34971ZM1.5 8.34733C1.5 5.54577 1.99662 3.91853 3.00473 2.95355C4.02253 1.97929 5.74626 1.5 8.68651 1.5V0C5.67438 0 3.42985 0.470172 1.9675 1.86997C0.495441 3.27905 0 5.45047 0 8.34733H1.5ZM8.68651 1.5C11.6268 1.5 13.3505 1.97929 14.3683 2.95355C15.3764 3.91853 15.873 5.54577 15.873 8.34733H17.373C17.373 5.45047 16.8776 3.27905 15.4055 1.86997C13.9432 0.470172 11.6986 0 8.68651 0V1.5ZM15.873 8.34733C15.873 11.1484 15.3764 12.7757 14.3683 13.7408C13.3504 14.7152 11.6267 15.1947 8.68651 15.1947V16.6947C11.6987 16.6947 13.9432 16.2242 15.4055 14.8244C16.8776 13.4152 17.373 11.2438 17.373 8.34733H15.873ZM8.68651 15.1947C5.74632 15.1947 4.02258 14.7152 3.00475 13.7408C1.99661 12.7757 1.5 11.1484 1.5 8.34733H0C0 11.2438 0.495455 13.4152 1.96747 14.8244C3.42981 16.2242 5.67431 16.6947 8.68651 16.6947V15.1947Z" fill="#1AADB6"/>
</svg>
