<svg width="74" height="13" viewBox="0 0 74 13" fill="none" xmlns="http://www.w3.org/2000/svg">
<path d="M22.0976 0.469238C24.1994 0.469238 26.1432 0.511938 27.9193 0.63833C29.5309 0.715228 31.0694 0.873035 32.4483 1.10291C33.7442 1.31384 34.7145 1.61018 35.3591 1.99021C36.0071 2.37024 36.3294 2.83567 36.3294 3.34209C36.3294 3.93391 35.8459 4.44033 34.7145 4.82036C33.7442 5.20124 32.126 5.53858 30.1854 5.79221C32.9351 6.004 35.0368 6.38403 36.3294 6.89046C37.6254 7.39773 38.4345 8.03139 38.4345 8.7496C38.4345 9.34143 37.9474 9.84785 37.1385 10.2706C36.3294 10.6933 35.0368 11.0733 33.5797 11.327C31.997 11.5988 30.2474 11.7987 28.4061 11.9179C26.4655 12.0452 24.525 12.1297 22.5844 12.1297H0.90625V0.469238H22.0976ZM20.8018 5.20039C22.5811 5.20039 24.0382 5.07399 25.1696 4.86306C26.3011 4.65212 26.7878 4.27124 26.7878 3.80666C26.7878 3.55302 26.6234 3.29939 26.3011 3.13115C25.9787 2.96206 25.492 2.83481 24.8473 2.70842C24.1994 2.62388 23.5514 2.53933 22.7423 2.49749C21.9332 2.45478 21.1274 2.45478 20.1538 2.45478H10.7734V5.20124H20.805L20.8018 5.20039ZM21.2885 10.186C22.2588 10.186 23.2291 10.1433 24.0382 10.1015C24.8551 10.0611 25.6277 9.97456 26.3011 9.84785C26.9601 9.72422 27.5115 9.56592 27.9193 9.38328C28.2416 9.17233 28.5672 8.9187 28.5672 8.62321C28.5672 8.0314 27.9193 7.60867 26.6267 7.31318C25.3308 7.05955 23.5514 6.93315 21.4497 6.93315H10.7734V10.1869H21.2885V10.186ZM52.5083 10.1433C53.8007 10.4815 55.7415 10.6506 58.33 10.6506C60.1094 10.6506 61.7275 10.5242 63.0199 10.3133C64.316 10.0597 65.125 9.806 65.4474 9.55237H73.3742C72.0781 10.5661 70.1377 11.2842 67.5525 11.7488C64.9607 12.1716 61.8885 12.4253 58.1686 12.4253C55.7885 12.4271 53.4288 12.3123 51.2122 12.087C49.2182 11.8928 47.4399 11.5736 46.0352 11.1579C44.5334 10.769 43.4227 10.29 42.8024 9.76331C41.993 9.21419 41.6677 8.62321 41.6677 7.94685C41.6677 7.31319 41.993 6.72221 42.8024 6.17224C43.5801 5.64283 44.7312 5.15571 46.1966 4.73582C47.6537 4.35578 49.4331 4.01846 51.3736 3.80666C53.5333 3.58127 55.8409 3.46642 58.1686 3.46848C60.9185 3.46848 63.3456 3.59573 65.4474 3.89121C67.5525 4.18669 69.1673 4.52487 70.4633 5.03215C71.7853 5.51939 72.7702 6.06267 73.3742 6.63767C73.6962 7.22864 73.8576 7.82046 73.6962 8.49597H50.2422C50.2422 9.17233 51.2122 9.80601 52.5083 10.1441V10.1433ZM62.6979 5.70767C61.5665 5.41218 59.787 5.24309 57.6819 5.24309C56.2282 5.24309 55.0935 5.32763 54.1231 5.45403C53.153 5.58127 52.5083 5.75036 51.8602 5.91946C51.265 6.08279 50.8709 6.28857 50.7288 6.51042C50.5645 6.72221 50.4032 6.89046 50.4032 7.05955H64.9607C64.6383 6.42588 63.8293 6.004 62.6979 5.70767ZM48.4627 1.272H66.5788V2.41294H48.466V1.272H48.4627Z" fill="#005CFF"/>
</svg>
