<svg width="6" height="10" viewBox="0 0 6 10" fill="none" xmlns="http://www.w3.org/2000/svg">
<path d="M1.28033 0.21967C0.987437 -0.0732232 0.512563 -0.0732232 0.21967 0.21967C-0.0732232 0.512563 -0.0732232 0.987437 0.21967 1.28033L1.28033 0.21967ZM4.75 4.75L5.28033 5.28033C5.57322 4.98744 5.57322 4.51256 5.28033 4.21967L4.75 4.75ZM0.21967 8.21967C-0.0732232 8.51256 -0.0732232 8.98744 0.21967 9.28033C0.512563 9.57322 0.987437 9.57322 1.28033 9.28033L0.21967 8.21967ZM0.21967 1.28033L4.21967 5.28033L5.28033 4.21967L1.28033 0.21967L0.21967 1.28033ZM4.21967 4.21967L0.21967 8.21967L1.28033 9.28033L5.28033 5.28033L4.21967 4.21967Z" fill="black"/>
</svg>
